<svg xmlns="http://www.w3.org/2000/svg" xmlns:xlink="http://www.w3.org/1999/xlink" width="19.636" height="25.621" viewBox="0 0 19.636 25.621"><defs><style>.a{fill:none;}.b{clip-path:url(#a);}.c{fill:#1b1d1f;}.d{fill:#cc1949;}</style><clipPath id="a"><rect class="a" width="19.636" height="25.621"/></clipPath></defs><g class="b"><path class="c" d="M11.9,25.621H4.667A4.673,4.673,0,0,1,0,20.953V4.669A4.673,4.673,0,0,1,4.667,0H11.9a4.674,4.674,0,0,1,4.669,4.669.937.937,0,1,1-1.873,0,2.8,2.8,0,0,0-2.8-2.8H4.667a2.8,2.8,0,0,0-2.793,2.8V20.953a2.8,2.8,0,0,0,2.793,2.8H11.9a2.8,2.8,0,0,0,2.8-2.8.937.937,0,1,1,1.873,0A4.674,4.674,0,0,1,11.9,25.621" transform="translate(0 0)"/><path class="d" d="M12.268,10.026a.932.932,0,0,1-.674-.287L7.624,5.631a.937.937,0,0,1,1.349-1.3l3.97,4.11a.937.937,0,0,1-.674,1.587" transform="translate(6.43 3.533)"/><path class="d" d="M8.362,12.344a.937.937,0,0,1-.693-1.566l3.854-4.234A.936.936,0,0,1,12.907,7.8L9.055,12.036a.932.932,0,0,1-.693.307" transform="translate(6.485 5.449)"/><path class="d" d="M14.309,8.143h-9.8a.937.937,0,1,1,0-1.873h9.8a.937.937,0,1,1,0,1.873" transform="translate(3.123 5.477)"/></g></svg>