<svg xmlns="http://www.w3.org/2000/svg" width="40.365" height="28.389" viewBox="0 0 40.365 28.389"><defs><style>.a{fill:#40cccc;}.b{fill:#d8315b;}</style></defs><g transform="translate(-368.756 25.321)"><path d="M406.158,3.068h-34.44A2.966,2.966,0,0,1,368.756.106V-22.358a2.967,2.967,0,0,1,2.962-2.963h34.44a2.967,2.967,0,0,1,2.963,2.963V.106A2.966,2.966,0,0,1,406.158,3.068Zm-34.44-26.189a.763.763,0,0,0-.762.763V.106a.762.762,0,0,0,.762.762h34.44a.763.763,0,0,0,.763-.762V-22.358a.764.764,0,0,0-.763-.763Z"/><rect width="38.165" height="2.2" transform="translate(369.856 -19.122)"/><path class="a" d="M395.975-7.3v4.729a.879.879,0,0,1-.914.837.878.878,0,0,1-.914-.837V-7.3a.878.878,0,0,1,.914-.837A.879.879,0,0,1,395.975-7.3Z"/><path class="a" d="M399.63-11.989v9.564c0,.38-.409.688-.914.688s-.914-.308-.914-.688v-9.564c0-.379.41-.688.914-.688S399.63-12.368,399.63-11.989Z"/><path class="a" d="M403.285-14.2V-2.574a.878.878,0,0,1-.913.837.878.878,0,0,1-.914-.837V-14.2a.877.877,0,0,1,.914-.836A.877.877,0,0,1,403.285-14.2Z"/><path class="b" d="M380.961-1.848a6.525,6.525,0,0,1-6.518-6.518,6.525,6.525,0,0,1,6.518-6.518,6.525,6.525,0,0,1,6.518,6.518A6.525,6.525,0,0,1,380.961-1.848Zm0-10.836a4.323,4.323,0,0,0-4.318,4.318,4.323,4.323,0,0,0,4.318,4.318,4.323,4.323,0,0,0,4.318-4.318A4.323,4.323,0,0,0,380.961-12.684Z"/><path class="b" d="M386.379-7.541h-5.418a.825.825,0,0,1-.825-.825.826.826,0,0,1,.825-.825h5.418a.825.825,0,0,1,.825.825A.825.825,0,0,1,386.379-7.541Z"/><path class="b" d="M380.961-7.541a.825.825,0,0,1-.825-.825v-5.418a.826.826,0,0,1,.825-.825.826.826,0,0,1,.825.825v5.418A.825.825,0,0,1,380.961-7.541Z"/></g></svg>