<svg xmlns="http://www.w3.org/2000/svg" width="31.353" height="31.122" viewBox="0 0 31.353 31.122"><defs><style>.a{fill:#fff;}</style></defs><g transform="translate(26.69 -127.919)"><path class="a" d="M-16.018,142.392h-6.869a3.806,3.806,0,0,1-3.8-3.8v-6.869a3.808,3.808,0,0,1,3.8-3.8h6.869a3.806,3.806,0,0,1,3.8,3.8v6.869A3.8,3.8,0,0,1-16.018,142.392Zm-6.869-12.444a1.774,1.774,0,0,0-1.774,1.774v6.869a1.774,1.774,0,0,0,1.774,1.772h6.869a1.775,1.775,0,0,0,1.772-1.772v-6.869a1.775,1.775,0,0,0-1.772-1.774Z" transform="translate(0 0)"/><path class="a" d="M-7.7,142.392H-14.57a3.8,3.8,0,0,1-3.8-3.8v-6.869a3.806,3.806,0,0,1,3.8-3.8H-7.7a3.806,3.806,0,0,1,3.8,3.8v6.869A3.8,3.8,0,0,1-7.7,142.392Zm-6.869-12.444a1.775,1.775,0,0,0-1.772,1.774v6.869a1.775,1.775,0,0,0,1.772,1.772H-7.7a1.775,1.775,0,0,0,1.772-1.772v-6.869A1.775,1.775,0,0,0-7.7,129.948Z" transform="translate(8.563 0)"/><path class="a" d="M-16.018,150.6h-6.869a3.806,3.806,0,0,1-3.8-3.8v-6.869a3.808,3.808,0,0,1,3.8-3.8h6.869a3.806,3.806,0,0,1,3.8,3.8V146.8A3.8,3.8,0,0,1-16.018,150.6Zm-6.869-12.444a1.774,1.774,0,0,0-1.774,1.774V146.8a1.774,1.774,0,0,0,1.774,1.772h6.869a1.775,1.775,0,0,0,1.772-1.772v-6.869a1.775,1.775,0,0,0-1.772-1.774Z" transform="translate(0 8.445)"/><path class="a" d="M-7.7,150.6H-14.57a3.8,3.8,0,0,1-3.8-3.8v-6.869a3.806,3.806,0,0,1,3.8-3.8H-7.7a3.806,3.806,0,0,1,3.8,3.8V146.8A3.8,3.8,0,0,1-7.7,150.6Zm-6.869-12.444a1.775,1.775,0,0,0-1.772,1.774V146.8a1.775,1.775,0,0,0,1.772,1.772H-7.7A1.775,1.775,0,0,0-5.929,146.8v-6.869A1.775,1.775,0,0,0-7.7,138.152Z" transform="translate(8.563 8.445)"/></g></svg>