<svg xmlns="http://www.w3.org/2000/svg" width="14.11" height="21.726" viewBox="0 0 14.11 21.726"><defs><style>.a{fill:#080c2f;}.b{fill:#d8315b;}.c{fill:#40cccc;}</style></defs><g transform="translate(0 0)"><path class="a" d="M522.255-138.623H520.57v-5.7a4.24,4.24,0,0,0-.474-1.949,5.461,5.461,0,0,0-4.894-2.817c-2.961,0-5.371,2.138-5.371,4.766v5.7h-1.685v-5.7c0-3.557,3.165-6.451,7.056-6.451a7.16,7.16,0,0,1,6.4,3.736,5.916,5.916,0,0,1,.658,2.715Z" transform="translate(-508.145 160.349)"/><path class="b" d="M515.7-152.412a5.437,5.437,0,0,1-5.431-5.431,5.437,5.437,0,0,1,5.431-5.431,5.436,5.436,0,0,1,5.429,5.431A5.436,5.436,0,0,1,515.7-152.412Zm0-9.176a3.749,3.749,0,0,0-3.746,3.745A3.749,3.749,0,0,0,515.7-154.1a3.749,3.749,0,0,0,3.744-3.745A3.749,3.749,0,0,0,515.7-161.588Z" transform="translate(-508.641 163.273)"/></g><path class="c" d="M516.979-153.583a1.79,1.79,0,0,1-1.678-1.175.419.419,0,0,1,.25-.539.419.419,0,0,1,.539.251.951.951,0,0,0,.889.62.943.943,0,0,0,.883-.6.421.421,0,0,1,.545-.239.421.421,0,0,1,.239.547A1.778,1.778,0,0,1,516.979-153.583Z" transform="translate(-509.813 161.413)"/></svg>