<svg xmlns="http://www.w3.org/2000/svg" width="359.689" height="252.135" viewBox="0 0 359.689 252.135"><defs><style>.a{fill:#fff;}.b,.f{fill-rule:evenodd;}.c{fill:#7f7e7e;}.d,.f{fill:#63abda;}.e{fill:#a1cde9;}</style></defs><g transform="translate(-25.971 -11.336)"><g transform="translate(162.863 11.336)"><g transform="translate(0)"><g transform="translate(0.889 0.76)"><path class="a" d="M142.384,11.97l206.908,1.7s-.527,67.619-1.307,87.745-.312,24.094-1.235,27.774c0,0,2.242,6.94,1.235,37.268s-2.421,84.892-2.421,84.892l-179.985-4.267-24.621-.312s1.223-50,.216-80.313,1.235-37.268,1.235-37.268c-.923-3.68-.467-7.636-1.235-27.774S142.384,11.97,142.384,11.97Z" transform="translate(-140.913 -11.97)"/></g><path class="b" d="M140.685,237.4l-.156,9.47-.012.587h.575c23.878.1,47.756.923,71.455,1.606,23.7.707,47.229,1.438,70.412,2,21.1.5,42.086.995,62.716,1.486l1.079.024.036-1.079q.881-31.16,1.726-61.721.414-15.283.827-30.423c.1-5.059.108-10.105-.048-15.14-.084-2.517-.192-5.035-.384-7.552-.108-1.259-.216-2.517-.372-3.776a30.672,30.672,0,0,0-.683-3.872l.024.551a37.562,37.562,0,0,0,.7-7.564c.048-2.457.108-4.915.156-7.372.108-4.9.276-9.769.444-14.648.312-9.757.444-19.431.587-29.056q.414-28.877.611-57.118l.012-.935-.923-.012c-55.116-.432-107.979-.851-159.727-1.259-10.477-.072-27.714-.192-38.454-.264-22.236-.084,1.127.923,11.843,1.175,31.49.671,64.011,1.235,95.692,1.594s62.548.539,90.646.611l-.935-.947c-.012,4.423-.024,8.379-.036,12.263q-.09,25.874-.408,51.712c-.132,8.607-.24,17.213-.563,25.808q-.216,6.455-.348,12.9l-.132,6.437a31.128,31.128,0,0,1-.611,6.293l-.036.12.036.168a50.029,50.029,0,0,1,1.007,7.468c.2,2.529.3,5.082.384,7.624q.2,7.642.024,15.283-.432,15.3-.863,30.579-.917,30.567-1.834,61.026l.623-.6q-51.46-1.331-102.633-2.661-25.586-.647-51.065-1.307-12.748-.324-25.472-.635-12.73-.162-25.424-.336l.947.983c.432-19.719.671-39.377.515-59.012q-.054-7.354-.228-14.708c-.12-4.9-.324-9.793-.42-14.672s-.132-9.757,0-14.624c.06-2.433.168-4.867.348-7.276a49.265,49.265,0,0,1,.923-7.084l.048-.228-.036-.156a26.9,26.9,0,0,1-.623-5.61l-.18-5.79c-.108-3.86-.228-7.732-.384-11.591-.384-7.72-.479-15.4-.5-23.111-.036-15.4.12-30.783.276-46.114.036-3.644.12-13.174.18-19.323,0-1.534-.012-2.853-.012-3.824,0-.24-.012-.456-.012-.659a2.031,2.031,0,0,0-.012-.276,3.369,3.369,0,0,1,.012-.36,7.491,7.491,0,0,1,.12-.827c.012-.084-.048-.024-.156.312a3.294,3.294,0,0,0-.156.719c-.012.2-.036.444-.06.731-.072,1.043-.168,2.721-.288,5.2C141,28.77,140.6,43.9,140.385,57.587s-.228,25.952-.2,30.363c.012,3.38.048,6.785.132,10.2q.18,5.106.36,10.273.144,5.16.288,10.393c.048,1.75.1,3.512.144,5.274a27.906,27.906,0,0,0,.635,5.442l.012-.491a27.117,27.117,0,0,0-.611,3.392c-.144,1.1-.252,2.218-.348,3.32-.18,2.218-.312,4.423-.384,6.653-.156,4.435-.192,8.894-.132,13.354.12,8.942.539,17.9.6,26.923C141.045,200.747,140.913,219.028,140.685,237.4Zm.587-18.208c-.156.947-.408-6.113-.2-7.312C141.225,210.936,141.476,218,141.273,219.2Z" transform="translate(-140.171 -11.336)"/></g><g transform="translate(12.358 8.739)"><path class="b" d="M290.452,20.033c-10.812.228-21.648-.6-32.161-.683-34.091-.288-66.8-.084-97.658-.623-2.218-.036-5.862-.12-8.139-.1-4.723.036.048,1.283,2.3,1.462,14.181,1.175,29.68,1.079,42.23.8,46.1-.983,91.76,2.11,136.028-.048,1.546-.072,8.1-.384,3.884-.815-4.315-.444-12.85-.216-14.72-.18C312.029,20,301.324,19.793,290.452,20.033Zm3.872.336c-.2-.156,1.307-.467,1.558-.264C296.086,20.249,294.576,20.561,294.324,20.369Z" transform="translate(-150.481 -18.626)"/></g><g transform="translate(11.137 204.729)"><path class="b" d="M197.336,183.5c10.812.132,21.637.779,32.137,1.067,34.079.9,66.78,1.534,97.622,2.493,2.218.072,5.862.192,8.139.228,4.723.084-.036-.635-2.29-.779-14.169-.9-29.668-1.2-42.206-1.355-46.09-.539-91.725-3.1-135.993-3.021-1.546,0-8.1.012-3.9.324,4.3.324,12.85.4,14.72.42C175.783,183.029,186.475,183.377,197.336,183.5Zm-3.86-.252c.2.084-1.307.2-1.558.1A4.008,4.008,0,0,1,193.476,183.245Z" transform="translate(-149.462 -182.128)"/></g><g transform="translate(11.131 19.914)"><path class="b" d="M197.337,28.753c10.812-.1,21.649.336,32.161.408,34.091.2,66.792.168,97.646.5,2.218.024,5.862.072,8.139.072,4.723-.012-.048-.635-2.3-.743-14.181-.611-29.692-.6-42.23-.479-46.09.408-91.76-1.235-136.017-.24-1.546.036-8.1.18-3.884.4,4.315.228,12.85.132,14.72.12C175.772,28.729,186.477,28.849,197.337,28.753Zm-3.872-.168c.2.072-1.295.228-1.558.132C191.715,28.634,193.213,28.49,193.465,28.586Z" transform="translate(-149.457 -27.949)"/></g><g transform="translate(29.234 11.47)"><path class="b" d="M166.454,70.262c.024,11.148-.479,22.308-.623,33.132-.432,35.122-.611,68.829-1.151,100.619-.036,2.29-.108,6.041-.12,8.379-.024,4.867.635-.048.755-2.373.707-14.612.791-30.591.767-43.513-.1-47.5,1.846-94.541,1.151-140.164-.024-1.594-.12-8.343-.372-4-.264,4.447-.216,13.246-.216,15.176C166.634,48.038,166.43,59.066,166.454,70.262Zm.2-3.992c-.084.2-.216-1.343-.12-1.606C166.622,64.46,166.754,66.006,166.658,66.27Z" transform="translate(-164.559 -20.904)"/></g><g transform="translate(60.424 11.47)"><path class="b" d="M192.474,70.262c.024,11.148-.479,22.308-.623,33.132-.432,35.122-.611,68.829-1.151,100.619-.036,2.29-.108,6.041-.12,8.379-.024,4.867.635-.048.755-2.373.707-14.612.791-30.591.767-43.513-.1-47.5,1.846-94.541,1.151-140.164-.024-1.594-.12-8.343-.372-4-.264,4.447-.216,13.246-.216,15.176C192.654,48.038,192.462,59.066,192.474,70.262Zm.2-3.992c-.084.2-.216-1.343-.12-1.606C192.642,64.46,192.774,66.006,192.678,66.27Z" transform="translate(-190.579 -20.904)"/></g><g transform="translate(93.544 11.47)"><path class="b" d="M220.1,70.262c.024,11.148-.479,22.308-.623,33.132-.432,35.122-.611,68.829-1.151,100.619-.036,2.29-.108,6.041-.12,8.379-.024,4.867.635-.048.755-2.373.707-14.612.791-30.591.767-43.513-.1-47.5,1.846-94.541,1.151-140.164-.024-1.594-.12-8.343-.372-4-.264,4.447-.216,13.246-.216,15.176C220.272,48.038,220.08,59.066,220.1,70.262Zm.2-3.992c-.084.2-.216-1.343-.12-1.606A4.129,4.129,0,0,1,220.308,66.27Z" transform="translate(-218.209 -20.904)"/></g><g transform="translate(127.084 11.47)"><path class="b" d="M248.084,70.262c.024,11.148-.479,22.308-.623,33.132-.432,35.122-.611,68.829-1.151,100.619-.036,2.29-.108,6.041-.12,8.379-.024,4.867.635-.048.755-2.373.707-14.612.791-30.591.767-43.513-.1-47.5,1.846-94.541,1.151-140.164-.024-1.594-.12-8.343-.372-4-.264,4.447-.216,13.246-.216,15.176C248.252,48.038,248.06,59.066,248.084,70.262Zm.192-3.992c-.084.2-.216-1.343-.12-1.606C248.24,64.46,248.384,66.006,248.276,66.27Z" transform="translate(-246.189 -20.904)"/></g><g transform="translate(161.067 11.47)"><path class="b" d="M276.434,70.262c.024,11.148-.48,22.308-.623,33.132-.432,35.122-.611,68.829-1.151,100.619-.036,2.29-.108,6.041-.12,8.379-.024,4.867.635-.048.755-2.373.707-14.612.791-30.591.767-43.513-.1-47.5,1.846-94.541,1.151-140.164-.024-1.594-.12-8.343-.372-4-.264,4.447-.216,13.246-.216,15.176C276.614,48.038,276.41,59.066,276.434,70.262Zm.2-3.992c-.084.2-.216-1.343-.12-1.606A4.129,4.129,0,0,1,276.638,66.27Z" transform="translate(-274.539 -20.904)"/></g><g transform="translate(2.375 116.84)"><path class="b" d="M194.257,110.573c11.759-.3,23.554.455,34.978.467,37.076.06,72.653-.372,106.217-.024,2.409.024,6.377.084,8.846.048,5.142-.072-.06-1.283-2.517-1.45-15.427-1.079-32.293-.875-45.934-.527-50.142,1.295-99.816-1.5-147.956.959-1.69.084-8.81.432-4.219.839,4.7.42,13.989.12,16.015.084C170.81,110.74,182.45,110.872,194.257,110.573Zm-4.207-.312c.216.156-1.414.467-1.69.276C188.144,110.381,189.774,110.069,190.049,110.261Z" transform="translate(-142.153 -108.808)"/></g><g transform="translate(11.199 225.01)"><path class="b" d="M289.374,203.809c-10.812-.036-21.625-1.127-32.125-1.462-34.067-1.115-66.768-1.7-97.586-3-2.218-.1-5.862-.264-8.127-.3-4.723-.072.012,1.283,2.266,1.522,14.145,1.522,29.644,1.8,42.182,1.834,46.1.132,91.653,4.339,135.957,3.248,1.546-.036,8.1-.18,3.908-.719-4.3-.551-12.838-.527-14.708-.539C310.926,204.313,300.234,203.845,289.374,203.809Zm3.86.432c-.192-.156,1.307-.432,1.558-.228C295,204.169,293.485,204.445,293.233,204.241Z" transform="translate(-149.514 -199.048)"/></g></g><g transform="translate(261.861 51.753)"><g transform="translate(11.688 1.054)"><path class="c" d="M240.469,189.438c29.716-37.363,94.254-123.394,102.573-134.494a2.318,2.318,0,0,0,.132-2.6,14.547,14.547,0,0,0-9.386-6.353,2.292,2.292,0,0,0-2.385.923C321.573,60.53,235.075,178.518,232.51,183Z" transform="translate(-232.51 -45.933)"/></g><g transform="translate(61.962 61.154)"><path class="d" d="M290.189,103.718A100.83,100.83,0,0,0,280,96.07l-5.55,7.648a100.823,100.823,0,0,0,10.189,7.648Z" transform="translate(-274.45 -96.07)"/></g><g transform="translate(84.511 11.192)"><path class="a" d="M330.132,54.39h0A17.257,17.257,0,0,1,326.9,64.459l-29.38,41.032a2.344,2.344,0,0,1-3.141.635h0a2.349,2.349,0,0,1-.635-3.416l5.658-7.492" transform="translate(-293.261 -54.39)"/></g><g transform="translate(0.011 138.122)"><path class="a" d="M224.808,178.968l9.638-18.688s3,2.433,4.591,3.716a16.444,16.444,0,0,0,3.836,2.134s1.582.7-14.181,14.324c0,0-4.639,4.447-5.838,3.057C222.866,183.5,222.123,183.415,224.808,178.968Z" transform="translate(-222.769 -160.28)"/></g><path class="b" d="M290.643,128.131c13.869-18.736,28.553-36.92,42.182-55.008q4.135-5.5,8.259-10.98c1.367-1.822,2.745-3.656,4.112-5.478l.515-.683a4.177,4.177,0,0,0,.587-.959,3.375,3.375,0,0,0,.06-2.445,4.994,4.994,0,0,0-.264-.575l-.264-.4c-.168-.252-.336-.515-.527-.755a14.928,14.928,0,0,0-1.211-1.4,15.6,15.6,0,0,0-6.173-3.788,17.854,17.854,0,0,0-1.738-.491,3.534,3.534,0,0,0-.527-.1,3.586,3.586,0,0,0-.623-.012,3.394,3.394,0,0,0-1.2.3,3.476,3.476,0,0,0-1.007.707,3.894,3.894,0,0,0-.372.456l-.252.348-.995,1.367q-3.992,5.484-7.947,10.932-15.877,21.81-31.37,43.105t-30.615,42.05q-7.552,10.375-15,20.606c-2.481,3.416-4.939,6.821-7.408,10.213q-1.834,2.553-3.656,5.106c-.6.875-1.235,1.774-1.8,2.685-.527.935-1.007,1.87-1.486,2.8-2.182,4.279-5.55,11.388-7.564,15.871-.527,1.163-.9,2.038-1.139,2.673-.12.324-.216.575-.276.779-.024.108-.06.192-.072.264-.012.048-.024.084-.036.12a1.386,1.386,0,0,0-.084.372c-.012.467.12.575.132.539a5.616,5.616,0,0,1,.1-.6,1.365,1.365,0,0,1,.108-.228l.072-.072c.048-.06.1-.12.156-.192.108-.144.228-.324.372-.515,1.091-1.606,2.985-4.9,4.1-7.072q2.625-5.106,5.286-10.3l1.379-2.553.719-1.247.827-1.163c1.091-1.546,2.3-3.141,3.44-4.723,4.651-6.329,9.326-12.682,13.929-18.939,9.17-12.562,17.957-24.861,25.772-35.877,14.372-20.258,28.949-40.3,43.537-60.211l10.932-14.924a2.578,2.578,0,0,1,.647-.719,1.645,1.645,0,0,1,.8-.3,6.237,6.237,0,0,1,2,.42,14.567,14.567,0,0,1,3.968,1.954,12.682,12.682,0,0,1,3.117,3.081,9.094,9.094,0,0,1,.551.875,1.593,1.593,0,0,1,.144.815,1.876,1.876,0,0,1-.264.791l-.659.887q-11.148,14.69-22.26,29.308-22.224,29.218-44.2,58.125-10.932,14.474-21.8,28.853-5.43,7.174-10.848,14.336l-2.709,3.56c-.959,1.127-2.014,2.194-3.057,3.26q-3.147,3.183-6.4,6.257c-1.223,1.151-4.4,4.124-6.617,5.91-.551.444-1.055.827-1.462,1.091a3.453,3.453,0,0,1-.575.312.883.883,0,0,1-.6,0,1.282,1.282,0,0,1-.336-.2c-.036-.024-.048-.024-.012.036a.8.8,0,0,0,.456.312,1,1,0,0,0,.456.024c.048-.012.1-.024.156-.036a2.485,2.485,0,0,0,.4-.12,11.353,11.353,0,0,0,2.218-1.271A121.331,121.331,0,0,0,240.3,193.532a40.737,40.737,0,0,0,3.189-3.4c.887-1.139,1.714-2.206,2.457-3.177,1.486-1.93,2.649-3.44,3.272-4.243C262.581,165.2,276.7,146.951,290.643,128.131Zm-5.3,6.449c.384-.252-1.319,2.505-1.81,2.829C283.151,137.673,284.853,134.9,285.344,134.58Z" transform="translate(-222.759 -45.053)"/><g transform="translate(11.56 137.441)"><path class="b" d="M238.633,164.948c-.647-.1-.671-1.043-1.091-1.4-1.367-1.163-2.949-2.062-3.86-3.488a.915.915,0,0,0-.264-.336c-.216-.12-.947.863-.971,1.079a1.6,1.6,0,0,0,1.295,2.026c1.379.408,2.074,1.5,2.937,2.469a3.334,3.334,0,0,0,3.608,1.319c.12-.036.587-.168.575-.635s-.515-.432-.623-.444C239.675,165.451,239.28,165.032,238.633,164.948Zm-.012.372c.084-.132.324-.348.228-.18C238.776,165.272,238.525,165.487,238.621,165.32Z" transform="translate(-232.403 -159.712)"/></g><g transform="translate(61.961 68.045)"><path class="b" d="M282.3,107.9c-.767-.168-.923-1.211-1.474-1.642-1.8-1.4-3.8-2.445-5.166-4.04a1.663,1.663,0,0,0-.384-.384c-.276-.144-.839.971-.827,1.211a2.291,2.291,0,0,0,1.894,2.242c1.63.479,2.637,1.726,3.752,2.829a5.034,5.034,0,0,0,4.291,1.858c.132-.012.7-.072.671-.563s-.647-.575-.779-.6A21.466,21.466,0,0,0,282.3,107.9Zm.036.408c.072-.132.336-.336.24-.168C282.505,108.269,282.242,108.473,282.337,108.305Z" transform="translate(-274.45 -101.819)"/></g><g transform="translate(67.091 61.375)"><path class="b" d="M281.487,98.359c.767.168.923,1.211,1.474,1.642,1.8,1.4,3.8,2.445,5.166,4.04a1.665,1.665,0,0,0,.384.384c.276.144.839-.971.827-1.211a2.291,2.291,0,0,0-1.894-2.242c-1.63-.479-2.637-1.726-3.752-2.829a5.034,5.034,0,0,0-4.291-1.858c-.132.012-.7.072-.671.563s.647.575.779.6A16.72,16.72,0,0,0,281.487,98.359Zm-.036-.408c-.072.132-.336.336-.24.168C281.283,97.987,281.547,97.783,281.451,97.951Z" transform="translate(-278.729 -96.255)"/></g><g transform="translate(83.631 11.203)"><path class="b" d="M299.95,103.355c2.373-3.824,5.61-7.048,8.163-10.585,4.148-5.742,8.115-11.436,12.011-16.974,1.966-2.757,3.9-5.49,5.8-8.175.947-1.355,1.966-2.589,2.865-4.1a18.877,18.877,0,0,0,2-4.7,15.123,15.123,0,0,0,.563-3.536c-.024-2.074-1.247.024-1.522.863a24.679,24.679,0,0,1-3.764,7.708c-1.774,2.409-3.356,4.867-4.735,7.084-5.047,8.163-10.908,15.691-16.578,23.231q-2.122,2.841-4.207,5.67L298.5,102.7l-1.007,1.438-.5.719a1.824,1.824,0,0,1-.384.444,1.538,1.538,0,0,1-2.014-.132,1.709,1.709,0,0,1-.06-2.29q1.906-2.913,3.62-5.946c.324-.563,1.678-2.949.3-1.8a27.2,27.2,0,0,0-3.752,4.831l-.911,1.319a13.517,13.517,0,0,0-.995,1.522,3.256,3.256,0,0,0,1.163,3.98,3.153,3.153,0,0,0,4.088-.515,6.208,6.208,0,0,0,.539-.767l.467-.707C299.351,104.3,299.651,103.835,299.95,103.355Zm-1.187,1.127c.168.024.072.707-.144.683C298.44,105.141,298.548,104.458,298.764,104.482Z" transform="translate(-292.528 -54.399)"/></g></g><g transform="translate(28.97 49.745)"><g transform="translate(1.06 0.539)"><path class="d" d="M229.34,198.055,101.558,255.641a4.934,4.934,0,0,1-6.521-2.469l-65.245-144.8a4.934,4.934,0,0,1,2.469-6.521L160.043,44.262a4.934,4.934,0,0,1,6.521,2.469l65.245,144.791A4.948,4.948,0,0,1,229.34,198.055Z" transform="translate(-29.357 -43.827)"/></g><path class="b" d="M169.856,52.239l-1.414-3.081-.707-1.546c-.24-.515-.443-1.019-.767-1.582a5.517,5.517,0,0,0-6.581-2.313q-6.221,2.787-12.419,5.562-12.407,5.5-24.753,10.968c-16.47,7.252-32.832,14.42-48.871,21.637Q54.835,90.675,35.53,99.372l-2.409,1.091-1.223.563a6.154,6.154,0,0,0-1.343.875,6.04,6.04,0,0,0-1.942,5.826,7.061,7.061,0,0,0,.515,1.45l.539,1.2,1.091,2.409,2.17,4.807q4.333,9.6,8.643,19.143,17.261,38.173,34.115,75.47Q84.1,230.851,92.42,249.257l2.1,4.627a5.84,5.84,0,0,0,7.66,2.685l2.29-1.031,4.579-2.062q9.152-4.118,18.232-8.211Q163.653,228.957,199,213.092c6.773-3.033,17.909-8.031,24.861-11.148,14.384-6.557-.683-1.091-7.648,1.858-21.876,9.266-44.616,19.275-66.66,29.164-11,4.975-21.852,9.889-32.341,14.636q-7.857,3.6-15.4,7.048l-.467.216c-.132.048-.252.108-.384.156a4.578,4.578,0,0,1-.8.18,3.987,3.987,0,0,1-4.028-2.278q-1.69-3.668-3.344-7.252-24.22-52.557-47.732-105.09-5.88-13.126-11.759-26.216c-.959-2.17-2-4.411-2.889-6.509a4.349,4.349,0,0,1,2.266-5.3q6.545-2.931,13.066-5.85Q71.892,85.023,97.922,73.384t51.9-23.255l6.461-2.9,3.225-1.45c.515-.228,1.127-.527,1.534-.659a4.267,4.267,0,0,1,1.4-.192,3.954,3.954,0,0,1,2.565,1.091,3.855,3.855,0,0,1,.827,1.139l.719,1.582,2.913,6.449q5.826,12.874,11.639,25.724,23.3,51.334,46.917,101.662c.551,1.175,1.558,3.284,2.649,5.61.551,1.163,1.127,2.373,1.678,3.548a5.367,5.367,0,0,1,.168,3.776,5.508,5.508,0,0,1-1.63,2.433c-.575.5-1.019.719-1.067.8-.072.06.264.024,1.007-.42a5.576,5.576,0,0,0,2.433-3.488,5.749,5.749,0,0,0-.24-3.368c-.408-1.007-.815-1.918-1.247-2.937-.875-1.99-1.81-4.124-2.769-6.329-1.966-4.387-4.076-9.062-6.065-13.5-4.052-8.846-7.684-16.77-8.978-19.623C199.668,117.987,185.068,85.263,169.856,52.239Zm5.035,11.939c-.132-.671,2.218,3.764,2.385,4.627C177.42,69.476,175.07,65.029,174.891,64.178Z" transform="translate(-28.473 -43.378)"/><g transform="translate(23.217 26.945)"><g transform="translate(1.074 0.937)"><path class="e" d="M163.816,93.647l-100.068,45.1a5.157,5.157,0,0,1-6.821-2.577L49.2,119.012a5.157,5.157,0,0,1,2.577-6.821L151.841,67.1a5.157,5.157,0,0,1,6.821,2.577l7.732,17.153A5.151,5.151,0,0,1,163.816,93.647Z" transform="translate(-48.738 -66.638)"/></g><path class="b" d="M116.393,82.619c-15.068,7.12-30.615,13.306-45.383,19.934q-8.99,4.046-17.873,8.055l-1.115.5-.563.252c-.216.12-.444.216-.647.348a6.213,6.213,0,0,0-2.493,7.7c1.331,2.961,2.661,5.9,3.992,8.846s2.673,5.886,4.016,8.81a6.2,6.2,0,0,0,4.507,3.225,6.278,6.278,0,0,0,2.829-.216c.228-.072.444-.168.671-.252l.539-.252,1.091-.491q8.685-3.938,17.261-7.828c22.871-10.369,45.191-20.45,66.947-30.063,3.129-1.379,8.271-3.644,11.46-5.106,6.6-3.057-.6-1.139-3.848.144-20.378,8-42.086,18-59.563,26.264q-12.047,5.7-24.13,11.22l-6.041,2.757-3.021,1.367c-.491.216-1.019.48-1.5.671a4.257,4.257,0,0,1-1.45.324,4.687,4.687,0,0,1-4.675-3.1L54.7,129.68,52,123.638l-1.343-3.021-.671-1.51a4.878,4.878,0,0,1-.432-1.426,4.587,4.587,0,0,1,2.637-4.783l6.029-2.673q12.065-5.34,24.07-10.644c16-7.084,31.909-14.169,47.648-21.373q5.9-2.715,11.759-5.43l5.85-2.733,2.925-1.379a16.587,16.587,0,0,1,2.829-1.2,4.631,4.631,0,0,1,4.939,2.17c.935,1.846,1.858,3.836,2.793,5.742q2.823,5.772,5.634,11.52a5.367,5.367,0,0,1,.539,2.853,5.625,5.625,0,0,1-1.438,3.3,19.347,19.347,0,0,1-1.486,1.319c-.012.06.132.036.5-.1a4.976,4.976,0,0,0,1.642-1.115,5.875,5.875,0,0,0,1.558-2.865,6.186,6.186,0,0,0-.36-3.776c-.887-2.038-1.846-4.183-2.781-6.221-1.894-4.064-3.6-7.7-4.2-9l-.623-1.343a9.734,9.734,0,0,0-.779-1.45,6.106,6.106,0,0,0-6.173-2.529,6.688,6.688,0,0,0-1.63.551l-1.367.623C146.421,68.81,142.717,70.5,139,72.19,131.521,75.594,123.957,79.046,116.393,82.619Zm5.562-2.17c-.348-.012,1.63-1.247,2.062-1.235C124.365,79.226,122.387,80.473,121.955,80.449Z" transform="translate(-47.842 -65.856)"/></g><g transform="translate(39.956 65.25)"><g transform="translate(0 21.017)"><g transform="translate(1.121 0.944)"><path class="a" d="M66.06,140.331l52.6-23.7a5.627,5.627,0,0,1,7.444,2.817l31.957,70.927a5.627,5.627,0,0,1-2.817,7.444l-52.6,23.7A5.627,5.627,0,0,1,95.2,218.7L63.243,147.775A5.613,5.613,0,0,1,66.06,140.331Z" transform="translate(-62.741 -116.133)"/></g><path class="b" d="M91.323,211.331l2.781,6.005.683,1.51a6.671,6.671,0,0,0,.9,1.534,6.21,6.21,0,0,0,6.509,2.146,7.341,7.341,0,0,0,.863-.3l.755-.336,1.51-.659c2.014-.875,4.028-1.738,6.041-2.613,8.055-3.464,16.063-6.857,23.878-10.369q9.512-4.279,18.9-8.523l1.175-.527.6-.276c.228-.12.456-.228.671-.36a6.717,6.717,0,0,0,2.817-8.007c-.192-.515-.36-.851-.539-1.259l-.527-1.163-1.055-2.337c-.707-1.558-1.4-3.1-2.11-4.651q-8.433-18.592-16.662-36.74-4.118-9.08-8.163-18.04c-.671-1.5-1.355-2.985-2.026-4.471l-1.007-2.23a10.132,10.132,0,0,0-.6-1.2,6.166,6.166,0,0,0-.875-1.127,6.513,6.513,0,0,0-5.13-1.978,7.223,7.223,0,0,0-2.649.731l-2.218.995Q98.119,125,80.882,132.7c-3.308,1.462-8.751,3.86-12.119,5.406-6.988,3.225.6,1.127,4.028-.228,10.764-4.255,21.888-9.038,32.641-13.833q4.028-1.816,7.983-3.6c1.319-.6,2.613-1.2,3.92-1.786.647-.3,1.295-.6,1.93-.887a4.679,4.679,0,0,1,1.642-.42,4.613,4.613,0,0,1,3.141.995,4.777,4.777,0,0,1,1.091,1.259l.192.372.216.456.432.923c1.151,2.433,2.266,4.819,3.356,7.132,8.019,17,15.775,34.067,23.423,51.113l2.853,6.389,1.426,3.2.707,1.594a5.508,5.508,0,0,1,.4,1.51,5.074,5.074,0,0,1-2.925,5.083l-6.377,2.829q-12.766,5.646-25.46,11.28-6.347,2.823-12.682,5.634l-6.317,2.817-1.582.719a5.333,5.333,0,0,1-1.414.479,4.713,4.713,0,0,1-2.8-.348,4.629,4.629,0,0,1-2.086-1.894c-.216-.384-.456-.959-.7-1.474l-.707-1.57-2.829-6.281q-2.859-6.275-5.694-12.514Q75.146,172.079,63.249,147.74a5.809,5.809,0,0,1-.456-3.033,6.217,6.217,0,0,1,1.594-3.44,19.5,19.5,0,0,1,1.57-1.367c.024-.06-.132-.036-.527.108a5.5,5.5,0,0,0-1.726,1.163,6.475,6.475,0,0,0-1.462,6.9c.947,2.266,1.966,4.459,2.949,6.641,2,4.3,3.788,8.151,4.435,9.53C76.711,179.338,83.759,195.3,91.323,211.331Zm-2.313-5.886c0,.36-1.295-1.738-1.295-2.194C87.715,202.892,89.009,204.99,89.009,205.445Z" transform="translate(-61.806 -115.345)"/></g><g transform="translate(8.273 40.124)"><path class="b" d="M115.592,138.543c-3.56,1.774-7.336,3.057-10.86,4.639-11.424,5.118-22.272,10.237-32.677,14.732-.743.324-1.978.851-2.733,1.211-1.57.743.276.575,1.067.312a112.746,112.746,0,0,0,14.241-6.125c15.164-7.54,31.022-13.15,45.323-20.953.5-.276,2.625-1.414,1.127-.971a41.547,41.547,0,0,0-4.939,2.182C122.772,135.211,119.164,136.757,115.592,138.543Zm1.367-.443c-.1-.036.336-.408.467-.36C117.509,137.776,117.078,138.147,116.958,138.1Z" transform="translate(-68.708 -131.285)"/></g><g transform="translate(17.42 60.418)"><path class="b" d="M123.222,155.473c-3.56,1.774-7.336,3.057-10.86,4.639-11.424,5.118-22.272,10.237-32.677,14.732-.743.324-1.978.851-2.733,1.211-1.57.743.276.575,1.067.312a113.5,113.5,0,0,0,14.241-6.125c15.164-7.54,31.022-13.15,45.323-20.953.5-.276,2.625-1.414,1.127-.971a41.552,41.552,0,0,0-4.939,2.182C130.4,152.141,126.794,153.7,123.222,155.473Zm1.367-.444c-.1-.036.336-.408.467-.36C125.139,154.706,124.708,155.077,124.588,155.03Z" transform="translate(-76.338 -148.215)"/></g><g transform="translate(26.566 80.712)"><path class="b" d="M130.852,172.4c-3.56,1.774-7.336,3.057-10.86,4.639-11.424,5.118-22.272,10.237-32.677,14.732-.743.324-1.978.851-2.733,1.211-1.57.743.276.575,1.067.312a112.742,112.742,0,0,0,14.241-6.125c15.164-7.54,31.022-13.15,45.323-20.953.5-.276,2.625-1.414,1.127-.971a41.545,41.545,0,0,0-4.939,2.182C138.032,169.083,134.424,170.629,130.852,172.4Zm1.367-.432c-.1-.036.336-.408.467-.36C132.781,171.648,132.338,172.019,132.218,171.971Z" transform="translate(-83.968 -165.145)"/></g><g transform="translate(67.885)"><g transform="translate(1.073 0.827)"><path class="a" d="M190.88,180.191l-31.646,14.265a5.627,5.627,0,0,1-7.444-2.817l-31.957-70.927a5.627,5.627,0,0,1,2.817-7.444L154.3,99a5.627,5.627,0,0,1,7.444,2.817L193.7,172.747A5.623,5.623,0,0,1,190.88,180.191Z" transform="translate(-119.333 -98.503)"/></g><path class="b" d="M170.8,120.165c-1.606-3.38-3.153-6.8-4.675-10.225l-2.242-5.142-1.1-2.577a11.289,11.289,0,0,0-.647-1.343,6.884,6.884,0,0,0-.971-1.235,6.438,6.438,0,0,0-5.874-1.678,7.741,7.741,0,0,0-1.462.5l-1.283.539L149.99,100.1q-5.088,2.176-10.081,4.411-8.073,3.632-16.075,7.24l-.995.456-.5.228-.575.3a6.652,6.652,0,0,0-1.942,1.714,6.723,6.723,0,0,0-1.331,4.9,7.784,7.784,0,0,0,.288,1.271,11.81,11.81,0,0,0,.456,1.115l.9,1.978,1.8,3.956Q129.1,143.456,136.1,158.9q6.976,15.427,13.773,30.483l.839,1.882.42.947a6.6,6.6,0,0,0,4.471,3.668,6.591,6.591,0,0,0,2.373.12,7.312,7.312,0,0,0,2.206-.683c1.247-.551,2.481-1.1,3.716-1.666,4.963-2.194,9.877-4.387,14.768-6.545,2.817-1.235,7.444-3.272,10.3-4.591,5.934-2.757-.587-1.139-3.512-.012-4.591,1.774-9.254,3.668-13.917,5.622l-6.976,2.985c-1.163.5-2.313,1.007-3.464,1.51l-1.726.767-.432.192-.348.132a3.947,3.947,0,0,1-.719.18A4.543,4.543,0,0,1,153,191.32c-1.019-2.23-2.038-4.435-3.033-6.593-2.026-4.315-3.98-8.475-5.838-12.419-6.857-14.432-13.461-28.925-19.946-43.417l-2.421-5.43-1.211-2.721a5.054,5.054,0,0,1,2.493-6.749l5.418-2.4q10.842-4.783,21.649-9.554l2.7-1.2,1.343-.6.671-.3a5.692,5.692,0,0,1,.587-.2,4.77,4.77,0,0,1,4.6,1.127,4.572,4.572,0,0,1,.767.959,3.989,3.989,0,0,1,.288.551l.3.671,1.2,2.685,2.4,5.37q4.8,10.716,9.65,21.325,4.873,10.608,9.841,21.073,2.517,5.214,5.023,10.429l2.541,5.178,1.283,2.577a10.2,10.2,0,0,1,1.091,2.673,5.81,5.81,0,0,1-.1,2.613,6.264,6.264,0,0,1-1.618,2.8c-.683.7-1.331,1.031-1.355,1.163-.012.06.12.048.456-.072a5.04,5.04,0,0,0,1.51-.923,6.3,6.3,0,0,0,1.7-2.349,6.614,6.614,0,0,0,.432-3.356,6.9,6.9,0,0,0-.479-1.75c-.2-.468-.42-.947-.623-1.414-.432-.935-.851-1.882-1.271-2.793-1.714-3.644-3.236-6.917-3.788-8.091C183.23,147.352,177.261,133.771,170.8,120.165Zm1.918,5.023c.024-.312,1.175,1.45,1.139,1.846C173.832,127.357,172.682,125.583,172.718,125.188Z" transform="translate(-118.438 -97.812)"/></g><g transform="translate(41.504 29.411)"><path class="b" d="M123.676,182.885c-2.242-4.615-4.016-9.458-6.053-14-6.617-14.744-13.174-28.793-19.035-42.206-.42-.959-1.1-2.553-1.558-3.524-.947-2.026-.575.288-.216,1.295a191.381,191.381,0,0,0,7.983,18.364c9.566,19.659,17.189,39.977,26.935,58.592.336.647,1.774,3.416,1.139,1.51a69.334,69.334,0,0,0-2.829-6.377C127.956,192.175,125.93,187.512,123.676,182.885Zm.611,1.738c.036-.12.467.467.432.611C124.7,185.354,124.252,184.767,124.288,184.623Z" transform="translate(-96.43 -122.348)"/></g><g transform="translate(20.55 38.857)"><path class="b" d="M106.2,190.765c-2.242-4.615-4.016-9.458-6.053-14-6.617-14.744-13.174-28.793-19.035-42.206-.42-.959-1.1-2.553-1.558-3.524-.947-2.026-.575.288-.216,1.295a191.377,191.377,0,0,0,7.983,18.364c9.566,19.659,17.189,39.977,26.935,58.592.336.647,1.774,3.416,1.139,1.51a69.336,69.336,0,0,0-2.829-6.377C110.476,200.043,108.45,195.392,106.2,190.765Zm.611,1.738c.036-.12.467.467.432.611C107.215,193.234,106.772,192.647,106.808,192.5Z" transform="translate(-78.95 -130.228)"/></g><g transform="translate(76.116 18.993)"><path class="b" d="M156.573,118.515c-2.349,1.223-4.927,1.966-7.276,3.021-7.612,3.4-14.828,6.881-21.78,9.829-.5.216-1.319.551-1.822.791-1.043.5.276.575.815.432a51.152,51.152,0,0,0,9.53-4c10.021-5.226,20.785-8.547,30.147-14.109.324-.192,1.714-1.007.7-.779a19.239,19.239,0,0,0-3.3,1.438C161.344,116.262,158.935,117.281,156.573,118.515Zm.923-.252c-.072-.048.192-.348.288-.288S157.592,118.324,157.5,118.264Z" transform="translate(-125.305 -113.657)"/></g><g transform="translate(85.262 39.287)"><path class="b" d="M164.2,135.445c-2.349,1.223-4.927,1.966-7.276,3.021-7.612,3.4-14.828,6.881-21.78,9.829-.5.216-1.319.551-1.822.791-1.043.5.276.575.815.432a51.15,51.15,0,0,0,9.53-4c10.021-5.226,20.785-8.547,30.147-14.109.324-.192,1.714-1.007.7-.779a19.24,19.24,0,0,0-3.3,1.438C168.974,133.2,166.565,134.211,164.2,135.445Zm.923-.252c-.072-.048.192-.348.288-.288S165.222,135.254,165.126,135.194Z" transform="translate(-132.935 -130.587)"/></g><g transform="translate(115.359 59.235)"><path class="b" d="M174.21,149.8a33.385,33.385,0,0,1-3.8,1.45c-3.944,1.738-7.624,3.632-11.244,5.082-.264.108-.7.264-.947.4-.527.276.264.575.563.539a13.513,13.513,0,0,0,4.975-1.954c5.047-2.985,10.872-4.076,15.475-7.492.156-.12.839-.623.276-.587a5.044,5.044,0,0,0-1.714.731C176.655,148.6,175.4,149.1,174.21,149.8Zm.515-.06c-.06-.06.048-.288.12-.2C174.893,149.592,174.785,149.819,174.725,149.736Z" transform="translate(-158.042 -147.228)"/></g><g transform="translate(88.385 8.29)"><path class="b" d="M162.787,165.265c-2.242-4.615-4.016-9.458-6.053-14-6.617-14.744-13.174-28.793-19.035-42.206-.42-.959-1.1-2.553-1.558-3.524-.947-2.026-.575.288-.216,1.295a191.383,191.383,0,0,0,7.983,18.364c9.566,19.659,17.189,39.977,26.935,58.592.336.647,1.774,3.416,1.139,1.51a69.33,69.33,0,0,0-2.829-6.377C167.066,174.543,165.04,169.892,162.787,165.265ZM163.4,167c.036-.12.467.467.432.611C163.805,167.734,163.362,167.147,163.4,167Z" transform="translate(-135.54 -104.728)"/></g></g><g transform="translate(21.491 17.971)"><path class="b" d="M123.128,70.213c-5.862,2.8-11.963,5.142-17.717,7.732-18.688,8.391-36.524,16.662-53.5,24.118-1.223.539-3.225,1.414-4.471,1.99-2.577,1.2.288.575,1.558.1,8-3.009,16.446-6.928,23.243-10.189,24.993-11.975,50.585-21.972,74.331-34.019.827-.42,4.351-2.194,1.954-1.343-2.445.875-7.072,3.117-8.079,3.6C134.912,64.807,129.014,67.384,123.128,70.213Zm2.182-.815c-.144-.024.611-.539.791-.515C126.245,68.907,125.49,69.422,125.31,69.4Z" transform="translate(-46.402 -58.37)"/></g></g><g transform="translate(178.047 40.637)"><g transform="translate(0 3.433)"><path class="b" d="M159.181,39.526a1.877,1.877,0,0,0-.408-.683.794.794,0,0,0-.959-.072,6.1,6.1,0,0,0-.575.42,3.671,3.671,0,0,0-.444.42c-.432.479-.851.971-1.271,1.462a6.829,6.829,0,0,1-.587.659,1.622,1.622,0,0,1-.6.384c-.312.1-.467-.072-.479-.659.024-.575.108-1.175.18-1.738a5.1,5.1,0,0,0,.072-.6c-.012-.36-.635-.084-.731.084a3.975,3.975,0,0,0-.515,1.666,3.073,3.073,0,0,0,.012.875,1.556,1.556,0,0,0,.491.947,1.15,1.15,0,0,0,.935.264,1.851,1.851,0,0,0,.731-.312,5.209,5.209,0,0,0,1.019-.959c.6-.647,1.235-1.247,1.846-1.87a3.155,3.155,0,0,1,.408-.372c.1-.024-.012.012,0,0a2.336,2.336,0,0,1,.228.923,9.078,9.078,0,0,0,.767,2.493c.06.108.276.6.444.252a1.975,1.975,0,0,0-.072-1.127C159.445,41.18,159.469,40.425,159.181,39.526Zm-.1.36c.072-.024.24.072.156.108C159.157,40.006,158.99,39.91,159.085,39.886Z" transform="translate(-152.839 -38.644)"/></g><g transform="translate(23.168 0)"><path class="b" d="M182.456,41.15a18.213,18.213,0,0,1-2.469,2.146l.6.048a3.537,3.537,0,0,1-.408-1.786c-.024-.791.1-1.63.1-2.517a4.108,4.108,0,0,0-.779-2.685l-.467-.575-.384.623a37.685,37.685,0,0,1-5.118,6.713l.8.24c-.156-.983-.3-1.918-.443-2.841a3.985,3.985,0,0,0-.144-.767.992.992,0,0,0-.5-.6.7.7,0,0,0-.264-.072.71.71,0,0,0-.384.072.757.757,0,0,0-.36.384.737.737,0,0,0,.108.779c.312.276.527.156.551.132.108-.108-.06-.072-.276-.288-.132-.264.072-.372.168-.432.132-.048.132.072.168.108a2.942,2.942,0,0,1,.06.815c.012.324.024.647.048.971.048.647.132,1.295.24,1.918l.192,1.115.791-.815a19.279,19.279,0,0,0,2.074-2.565c1.019-1.486,2.014-2.949,2.949-4.459l-.42.024c.7.875.575,2.11.456,3.284a11.7,11.7,0,0,0-.084,1.846,3.431,3.431,0,0,0,.647,1.894l.288.36.36-.312c1.414-1.247,2.8-2.505,4.124-3.836l-.719-.252a2.965,2.965,0,0,0,4.148,1.99c.3-.1.935-.839.324-.635a4.893,4.893,0,0,1-1.055.24,2.821,2.821,0,0,1-.887-.06,2.16,2.16,0,0,1-1.678-1.654l-.132-.791-.563.551C183.558,40,183,40.551,182.456,41.15Zm.587-.336c-.072-.036,0-.324.1-.276C183.211,40.563,183.139,40.85,183.043,40.815Z" transform="translate(-172.166 -35.78)"/></g><g transform="translate(59.514 3.951)"><path class="b" d="M208.868,39.584c-.312-.1-.575-.276-.935-.408a1.468,1.468,0,0,0-1.127.024c-1.079.539-1.5,1.474-2.1,1.93a1.1,1.1,0,0,1-.851.324c-.252-.036-.527-.312-.515-.479,0-.048.036-.072.024-.084a.629.629,0,0,0-.3-.18.429.429,0,0,0-.42.06.894.894,0,0,0-.1.851,1.331,1.331,0,0,0,.551.647,1.414,1.414,0,0,0,1.522-.036,9.946,9.946,0,0,0,1.474-1.438,2.447,2.447,0,0,1,1.4-.827,2.521,2.521,0,0,1,1.379.539,3.737,3.737,0,0,0,.887.384,1.327,1.327,0,0,0,1.007-.06c.108-.036.324-.276.108-.444-.156-.156-.384-.072-.5-.1C209.934,40.243,209.491,39.776,208.868,39.584Zm.108.252c.036-.072.192-.156.144-.072C209.1,39.836,208.939,39.92,208.975,39.836Z" transform="translate(-202.487 -39.076)"/></g><g transform="translate(91.678 2.844)"><path class="b" d="M240.036,40.535a2.069,2.069,0,0,1-1.774.372c-.456-.2-.6-.827-.971-1.462a2.134,2.134,0,0,0-.755-.815,1.272,1.272,0,0,0-1.355.108,3.769,3.769,0,0,0-.659.671l-.539.611c-.719.815-1.426,1.63-2.134,2.421-.336.384-.671.611-.875.527-.216-.036-.467-.432-.539-.863a5.28,5.28,0,0,1,.288-2.757c.1-.252.288-.635.408-.875.252-.5-.563-.324-.779-.072a4.4,4.4,0,0,0-1.031,2.817,3.813,3.813,0,0,0,.264,1.558,1.465,1.465,0,0,0,2.613.491c.288-.312.491-.6.743-.887.48-.575.983-1.127,1.5-1.678l.767-.815c.264-.276.5-.539.707-.515.192-.024.348.144.527.456.168.288.324.635.539.983a1.989,1.989,0,0,0,1.055.9,2.244,2.244,0,0,0,1.355-.036,16.547,16.547,0,0,0,2.05-.923,4.646,4.646,0,0,1,3.968.228c.18.072.923.647.683.072a2.092,2.092,0,0,0-.875-.863,3.8,3.8,0,0,0-.887-.348,5.432,5.432,0,0,0-2.242-.168A5.1,5.1,0,0,0,240.036,40.535Zm.515-.084c-.06-.06.048-.288.12-.216S240.624,40.523,240.552,40.451Z" transform="translate(-229.32 -38.153)"/></g><g transform="translate(128.308 4.817)"><path class="b" d="M264.447,40.831a1.474,1.474,0,0,1-.719.12,2.1,2.1,0,0,0-.707.1,3.127,3.127,0,0,1-1.666.312c-.408-.108-.551-.575-.348-1.127a1.231,1.231,0,0,0,.084-.3c.012-.192-.623-.144-.731-.06a1.126,1.126,0,0,0-.479.995,1.278,1.278,0,0,0,.623,1.019,2.57,2.57,0,0,0,1.69.24,8.606,8.606,0,0,0,1.486-.312c.42-.12.839-.18,1.223-.252a2.13,2.13,0,0,1,1.259,0c.072.012.372.252.467-.036.108-.36-.467-.7-.575-.683A2.071,2.071,0,0,0,264.447,40.831Zm.192.12c-.024-.072.036-.24.06-.144C264.711,40.879,264.663,41.047,264.639,40.951Z" transform="translate(-259.878 -39.799)"/></g><g transform="translate(119.921 17.234)"><path class="b" d="M263.68,52.342c-1.175-.048-2.349-.707-3.692-.408a5.165,5.165,0,0,0-2.529,1.666,3.483,3.483,0,0,1-1.978,1.259c-1.594.324-1.45-2.05-1.69-3.62-.024-.24-.06-.647-.108-.887-.108-.5-.635.1-.683.36a7.828,7.828,0,0,0-.048,2.421,5.484,5.484,0,0,0,.276,1.235,2.1,2.1,0,0,0,.863,1.067,2.385,2.385,0,0,0,2.17.012,5.377,5.377,0,0,0,1.618-1.163,7.66,7.66,0,0,1,1.414-1.139,3.336,3.336,0,0,1,1.63-.384c1.163,0,2.325.4,3.632.491a5.592,5.592,0,0,0,1.942-.2,2.734,2.734,0,0,0,1.546-1.115c.12-.156.324-.779-.072-.563-.336.216-.887.659-1.079.731A6.553,6.553,0,0,1,263.68,52.342Zm.4.228c-.012-.072.18-.216.192-.108C264.267,52.534,264.088,52.666,264.076,52.57Z" transform="translate(-252.881 -50.157)"/></g></g><g transform="translate(25.971 12.324)"><g transform="translate(5.148 2.303)"><path class="f" d="M108.726,38.521c-5.67,5.73-12.083,10.7-17.8,16.051-.971.911-1.942,1.81-2.889,2.7Q76.475,51.156,65.417,45.33q-7.893,8.2-15.487,16.111-7.372,7.624-14.576,14.876c-1.163,1.175-3.093,3.081-4.243,4.327-2.4,2.577.947.863,2.242-.228,8.127-6.845,16.015-15.283,22.26-22.248q2.553-2.859,5.166-5.658l4.951-5.274,5.322,2.8L76.7,53.073q5.826,3.183,11.639,6.365,5.844-5.322,11.639-10.632c3.74-3.428,7.456-6.869,11.112-10.333,7.324-6.928,14.444-13.965,21.169-21.277.779-.851,4.1-4.447,1.534-2.589a88.7,88.7,0,0,0-8.055,7.444C120.329,27.409,114.419,32.767,108.726,38.521Zm2.313-1.738c-.216-.012.384-1.007.647-.995C111.9,35.788,111.3,36.8,111.039,36.783Z" transform="translate(-30.267 -14.081)"/></g><g transform="translate(96.981)"><path class="f" d="M120.642,19.8c-.18-1.558.683-3.057.815-4.543.084-1.055.168-2.11.24-3.093-.971.144-1.942.288-2.913.444-.515.084-1.031.168-1.546.264-1.031.168-2.038.348-3.045.515-2.014.324-3.98.6-5.91.719a7.81,7.81,0,0,0-1.163.12c-.659.168.192,1.271.527,1.39a9,9,0,0,0,6.053-.324,19.328,19.328,0,0,1,3.428-.839c.575-.1,1.151-.168,1.738-.228.348-.036.444-.036.6-.048h.384l-.18.791-.24,1.558c-.156,1.031-.276,2.074-.348,3.1a17,17,0,0,0,.575,6.233c.072.228.348,1.187.791.623.467-.587.264-1.822.24-2.1C120.582,22.876,120.834,21.366,120.642,19.8Zm-.348.527c.156-.012.456.216.264.24C120.4,20.587,120.1,20.347,120.294,20.323Z" transform="translate(-106.877 -12.16)"/></g><g transform="translate(0 68.008)"><path class="f" d="M31.735,70.124c-.515-.276-.923-.623-1.486-.9a2.466,2.466,0,0,0-1.846-.24A3.513,3.513,0,0,0,26.341,73.9a3.8,3.8,0,0,0,4.771,1.81,2.2,2.2,0,0,0,.851-.5c.192-.228-.048-.432-.348-.611a3.745,3.745,0,0,0-.743-.372c-.743-.132-1.1-.3-1.45-.36a7.727,7.727,0,0,1-1.055-.2,1.4,1.4,0,0,1-.731-1.918,1.731,1.731,0,0,1,1.786-1.019,2.266,2.266,0,0,1,1.558.923,3.387,3.387,0,0,1,.743,2.313c.024.144-.192.887.408.839a1.037,1.037,0,0,0,.731-.7,1.994,1.994,0,0,0,.144-.779,4.545,4.545,0,0,0-.192-1.8A2.363,2.363,0,0,0,31.735,70.124Zm.036.5c.108-.12.456-.18.312-.048C31.975,70.675,31.64,70.759,31.771,70.627Z" transform="translate(-25.971 -68.895)"/></g><g transform="translate(38.41 32.424)"><path class="f" d="M61.485,40.121a2.793,2.793,0,0,1-.827-.575,1.324,1.324,0,0,0-1.127-.3,2.094,2.094,0,0,0-1.367,1.271,2.174,2.174,0,0,0,.084,1.774,2.457,2.457,0,0,0,2.937,1.187,1.137,1.137,0,0,0,.551-.3c.12-.156-.12-.372-.384-.575s-.539-.432-.611-.491c-.479-.336-.491-.611-.5-.635,0-.048-.036.108-.228.18a.322.322,0,0,1-.4-.479.436.436,0,0,1,.611-.132c.156.12.132.2.276.24.108.036.551.132.8.887.06.084.036.611.5.707a.516.516,0,0,0,.527-.384,1.24,1.24,0,0,0,.06-.5,3.321,3.321,0,0,0-.168-1.1A1.338,1.338,0,0,0,61.485,40.121Zm-.084.372c.108-.108.42-.228.276-.1C61.557,40.481,61.258,40.613,61.4,40.493Z" transform="translate(-58.014 -39.209)"/></g><g transform="translate(60.883 44.584)"><path class="f" d="M77.647,50.272a3.034,3.034,0,0,1-.563.839,1.275,1.275,0,0,0-.276,1.127,2.094,2.094,0,0,0,1.283,1.355,2.172,2.172,0,0,0,1.774-.108,2.452,2.452,0,0,0,1.151-2.949,1.145,1.145,0,0,0-.3-.539c-.156-.12-.36.132-.575.4s-.42.539-.479.611c-.324.491-.6.5-.635.515s.108.036.18.228a.322.322,0,0,1-.467.408.423.423,0,0,1-.132-.611c.12-.156.2-.132.228-.276.036-.108.12-.551.875-.815.084-.06.6-.048.7-.515a.526.526,0,0,0-.4-.527,1.173,1.173,0,0,0-.5-.048,3.325,3.325,0,0,0-1.1.18A1.234,1.234,0,0,0,77.647,50.272Zm.36.072c-.108-.108-.228-.42-.108-.276S78.138,50.488,78.006,50.344Z" transform="translate(-76.763 -49.354)"/></g></g><g transform="translate(37.013 212.179)"><g transform="translate(10.315)"><path class="f" d="M45.553,195.96c-.3-1.319.456-2.637.467-3.92.06-4.16-.372-8.151-.024-11.915a5.536,5.536,0,0,0,.048-.995c-.072-.575-1.283.012-1.45.288a6.643,6.643,0,0,0-.527,5.154c1.295,5.622-1.5,11.2.959,16.59.084.192.432.983.839.479.42-.527.12-1.57.084-1.8C45.732,198.585,45.864,197.291,45.553,195.96Zm-.312.467c.156-.024.467.156.276.192C45.373,196.643,45.049,196.464,45.241,196.428Z" transform="translate(-43.788 -178.887)"/></g><g transform="translate(0 10.31)"><path class="f" d="M41.029,189.253c1.319-.3,2.637.455,3.92.467,4.159.06,8.151-.372,11.915-.024a5.533,5.533,0,0,0,.995.048c.575-.072-.012-1.283-.288-1.45a6.643,6.643,0,0,0-5.154-.527c-5.622,1.295-11.2-1.5-16.59.959-.192.084-.983.432-.479.839.527.42,1.57.12,1.8.084C38.4,189.42,39.711,189.552,41.029,189.253Zm-.467-.312c.024.156-.156.467-.192.276C40.346,189.073,40.526,188.749,40.562,188.941Z" transform="translate(-35.182 -187.488)"/></g></g></g></svg>