<svg xmlns="http://www.w3.org/2000/svg" width="15.288" height="23.047" viewBox="0 0 15.288 23.047"><defs><style>.a{fill:#080c2f;}.b{fill:#40cccc;}.c{fill:#d8315b;}</style></defs><g transform="translate(0 0)"><path class="a" d="M609.5-139.6h-8.974a3.16,3.16,0,0,1-3.157-3.156v-8.975a3.16,3.16,0,0,1,3.157-3.157H609.5a3.16,3.16,0,0,1,3.157,3.157v8.975A3.16,3.16,0,0,1,609.5-139.6Zm-8.974-13.6a1.473,1.473,0,0,0-1.472,1.472v8.975a1.473,1.473,0,0,0,1.472,1.471H609.5a1.472,1.472,0,0,0,1.472-1.471v-8.975A1.473,1.473,0,0,0,609.5-153.2Z" transform="translate(-597.364 162.643)"/><path class="b" d="M610.743-157.933h-1.685v-2.185a3.213,3.213,0,0,0-3.209-3.209,3.214,3.214,0,0,0-3.21,3.209v2.185h-1.685v-2.185a4.9,4.9,0,0,1,4.9-4.894,4.9,4.9,0,0,1,4.894,4.894Z" transform="translate(-598.204 165.012)"/><g transform="translate(5.903 12.339)"><ellipse class="c" cx="1.742" cy="1.742" rx="1.742" ry="1.742"/><path class="c" d="M608.272-142.842H605.6l1.338-5.023v-.013Z" transform="translate(-605.193 148.664)"/></g></g></svg>