<svg xmlns="http://www.w3.org/2000/svg" width="57.535" height="24.165" viewBox="0 0 57.535 24.165"><defs><style>.a{fill:#fff;}</style></defs><g transform="translate(-115.385 -119.494)"><g transform="translate(115.385 119.494)"><g transform="translate(0 0)"><path class="a" d="M183.025,249.912l-.475.161a4.365,4.365,0,0,0-.563.2c-.209.1-.444.2-.7.311-.257.129-.54.292-.841.454l-.952.589-1.045.721c-.357.281-.742.539-1.126.852-.776.611-1.6,1.278-2.468,2.023-.871.728-1.773,1.531-2.72,2.344s-1.916,1.679-2.923,2.542-2.04,1.732-3.08,2.6c-1.059.851-2.112,1.713-3.195,2.519-1.067.822-2.162,1.589-3.236,2.313s-2.154,1.382-3.212,1.961a30.083,30.083,0,0,1-3.072,1.488c-.492.2-.98.372-1.435.534-.475.134-.913.278-1.339.376-.436.082-.826.185-1.207.223s-.725.075-1.037.09a6.66,6.66,0,0,1-1.444-.1c-.326-.055-.492-.094-.492-.094l.476-.16a4.555,4.555,0,0,0,.549-.193c.21-.1.449-.2.712-.312.262-.127.543-.291.845-.452q.443-.27.953-.586l1.048-.716c.358-.279.743-.54,1.128-.849.776-.61,1.607-1.275,2.472-2.018.871-.725,1.774-1.528,2.721-2.338.942-.827,1.916-1.678,2.924-2.539s2.041-1.73,3.08-2.6c1.059-.851,2.112-1.712,3.193-2.519s2.16-1.591,3.233-2.315,2.152-1.384,3.209-1.966a30.182,30.182,0,0,1,3.067-1.494c.491-.2.98-.375,1.434-.537.472-.139.912-.279,1.337-.381.436-.083.826-.185,1.206-.227s.724-.074,1.038-.093a6.315,6.315,0,0,1,1.443.1Z" transform="translate(-136.029 -248.613)"/><g transform="translate(29.851 3.727)"><path class="a" d="M419.043,298.722l1.759.754,2.007.848c.78.31,1.641.688,2.6,1.05s1.979.771,3.08,1.128,2.25.731,3.446,1.019a20.1,20.1,0,0,0,3.646.587,9.073,9.073,0,0,0,3.461-.453,10.7,10.7,0,0,0,1.654-.71,11.7,11.7,0,0,0,1.534-1.008,10.311,10.311,0,0,0,2.449-2.749,9.691,9.691,0,0,0,1.245-3.35,11.553,11.553,0,0,0,.065-3.285,9.964,9.964,0,0,0-1.767-4.618,8.112,8.112,0,0,0-.91-1.07,4.743,4.743,0,0,0-.372-.33,4.761,4.761,0,0,1,.378.324,8.468,8.468,0,0,1,.955,1.037,11.049,11.049,0,0,1,1.186,1.857,11.556,11.556,0,0,1,.963,2.723,11.951,11.951,0,0,1,.244,1.649c.012.141.024.283.036.426.012.169.013.3.02.457.016.3,0,.606-.006.917a13.221,13.221,0,0,1-.781,3.873,11.759,11.759,0,0,1-2.218,3.729,10.235,10.235,0,0,1-1.686,1.542A9.637,9.637,0,0,1,440,306.232a9.391,9.391,0,0,1-4.608.694,18.2,18.2,0,0,1-4.163-.887,27.3,27.3,0,0,1-3.576-1.466c-1.09-.548-2.1-1.086-3-1.644s-1.709-1.079-2.4-1.59-1.288-.95-1.761-1.344C419.541,299.222,419.043,298.722,419.043,298.722Z" transform="translate(-419.043 -286.537)"/></g><path class="a" d="M27.666,242.47s-.639-.275-1.759-.755l-2.007-.847c-.78-.31-1.641-.689-2.6-1.05s-1.979-.771-3.08-1.128-2.25-.732-3.446-1.019a20,20,0,0,0-3.646-.587,9.085,9.085,0,0,0-3.461.453,10.647,10.647,0,0,0-1.653.711,11.73,11.73,0,0,0-1.534,1.007A10.344,10.344,0,0,0,2.031,242a9.687,9.687,0,0,0-1.245,3.35,11.554,11.554,0,0,0-.065,3.285,9.97,9.97,0,0,0,1.767,4.618,8.058,8.058,0,0,0,.91,1.069,4.747,4.747,0,0,0,.372.33,4.759,4.759,0,0,1-.378-.324,8.513,8.513,0,0,1-.955-1.037,11.082,11.082,0,0,1-1.186-1.858,11.562,11.562,0,0,1-.963-2.722,11.975,11.975,0,0,1-.244-1.649c-.012-.141-.024-.282-.036-.426-.012-.169-.013-.3-.02-.457-.016-.3,0-.606.006-.917a13.214,13.214,0,0,1,.781-3.873A11.743,11.743,0,0,1,3,237.663a10.228,10.228,0,0,1,1.686-1.542,9.692,9.692,0,0,1,2.026-1.16,9.391,9.391,0,0,1,4.608-.694,18.164,18.164,0,0,1,4.162.887,27.3,27.3,0,0,1,3.576,1.466c1.09.549,2.1,1.086,3,1.644s1.709,1.079,2.4,1.59,1.288.95,1.761,1.343C27.168,241.969,27.666,242.47,27.666,242.47Z" transform="translate(0.017 -234.218)"/></g></g></g></svg>