<svg xmlns="http://www.w3.org/2000/svg" width="327.446" height="257.135" viewBox="0 0 327.446 257.135"><defs><style>.a{fill:#fff;}.b,.e{fill:#63abda;}.c{fill:#7f7e7e;}.d,.e{fill-rule:evenodd;}</style></defs><g transform="translate(-38.968 -8.856)"><g transform="translate(102.544 9.447)"><path class="a" d="M181.657,253.478c5.185-8.029,6.392-11.577,20.586-11.267s15.652,7.312,17.181,11.577,6.093,10.048,18.615,10.717c22.45,1.195,37.361-8.029,38.89-29.666,1.637-23.095,24.684-28.985,29.212-66.513,5.592-46.321-19.331-74.6-19.331-74.6,35.951-55.282,3.142-81.352,3.142-81.352-56.178-15.281-74.16,32.354-74.16,32.354H183.437c-25.616-49.882-75.51-31.912-75.51-31.912-25.616,36.4,4.05,80.9,4.05,80.9s-26.643,30.049-18.113,73.3S122.3,209.606,123.1,230.98c.609,16.141-.155,28.937,23.453,33.5C172.767,269.56,177.582,259.8,181.657,253.478Z" transform="translate(-92.18 -9.35)"/></g><g transform="translate(76.993 166.212)"><path class="b" d="M127.29,205.436s-22.617,6.81-45.377-3.668c-12.5-5.747-10.048-7.9-10.359-17.348s-1.541-27.408-.012-33.2S85.7,140.859,97.875,140.56c0,0,1.959,12.27,5.723,19.965s6.213,13.847,11.111,20.024S126.645,192.114,127.29,205.436Z" transform="translate(-70.794 -140.56)"/></g><g transform="translate(288.236 148.506)"><path class="c" d="M278.784,125.967c12.187.3,23.884,3.345,25.425,9.128s.3,23.752-.012,33.2c-.227,7.133,1.266,18.794,1.039,25.556l-.143.753s2.258.669,2.115,5.7c0,2.748-1.84,6.535-4.385,7.575-28.567,11.721-55.222.5-55.222.5s.777-6.667,6.273-14.516,10.442-13.573,14.516-22.844,6.117-12.246,7.384-24.17a151.049,151.049,0,0,0,.789-21.112Z" transform="translate(-247.6 -125.74)"/></g><g transform="translate(101.813 8.856)"><g transform="translate(0)"><path class="d" d="M109.05,98.9c1.111-1.613,2.27-3.214,3.513-4.7l.287-.335-.239-.37a96.976,96.976,0,0,1-9.271-19.224A85.833,85.833,0,0,1,98.6,53.509a64.373,64.373,0,0,1-.179-10.622c.072-1.768.323-3.525.538-5.269.323-1.732.573-3.489,1.051-5.185A56.008,56.008,0,0,1,108.751,13.4l-.394.3a66.6,66.6,0,0,1,15.2-2.8,67.375,67.375,0,0,1,15.365.645A55.771,55.771,0,0,1,166.244,24.07a65.365,65.365,0,0,1,9.224,9.833,82.566,82.566,0,0,1,7.157,11.434l.323.585h33.7l.311-.7c5.831-13.381,16.679-24.923,30.144-30.467a51.214,51.214,0,0,1,10.406-3.142c.884-.2,1.78-.335,2.688-.454s1.792-.275,2.7-.346c1.816-.108,3.62-.311,5.436-.263a79.326,79.326,0,0,1,21.506,2.927l-.37-.191a30.334,30.334,0,0,1,3.716,3.895,37.59,37.59,0,0,1,3.13,4.48,43.439,43.439,0,0,1,4.409,9.964,52.311,52.311,0,0,1,1.613,21.59A80.24,80.24,0,0,1,296.5,74.143,127.5,127.5,0,0,1,286.163,93.3l-.394.6.478.562a57,57,0,0,1,4.253,5.866c1.326,2.043,2.557,4.146,3.7,6.285a98.91,98.91,0,0,1,5.914,13.322,104.085,104.085,0,0,1,5.783,28.352l.227,3.608-.024,3.62-.036,3.608c.024,1.207-.167,2.4-.239,3.6a89.87,89.87,0,0,1-2,14.23l-.824,3.489c-.3,1.159-.717,2.27-1.063,3.417a68.911,68.911,0,0,1-2.533,6.667,83.929,83.929,0,0,1-7.013,12.4c-2.688,3.943-5.627,7.718-8.351,11.709a46.454,46.454,0,0,0-6.559,12.987c-.275,1.195-.693,2.366-.86,3.572l-.478,3.644-.394,3.477c-.167,1.147-.454,2.27-.669,3.417A26.112,26.112,0,0,1,257.62,261.28a44.46,44.46,0,0,1-13.549,2.354c-4.612.1-9.307,0-13.585-1.386a18,18,0,0,1-5.842-3.071,12.981,12.981,0,0,1-3.859-5.114c-.454-1.123-.86-2.581-1.505-4.038a12.869,12.869,0,0,0-7.5-7.193,22.506,22.506,0,0,0-5.353-1.326,49.664,49.664,0,0,0-10.645-.1,21.3,21.3,0,0,0-4.97,1.1,12.679,12.679,0,0,0-4.062,2.473,17.436,17.436,0,0,0-2.569,3c-.633.908-1.111,1.7-1.517,2.342-.789,1.314-1.231,2.1-1.41,2.509-.358.8.346-.012,1.637-1.72.645-.848,1.434-1.924,2.378-3.071a14.842,14.842,0,0,1,3.5-3.2,13.226,13.226,0,0,1,4.588-1.685c.777-.191,1.565-.227,2.306-.335.753-.048,1.47-.1,2.139-.143a55.959,55.959,0,0,1,6.332.131,24.809,24.809,0,0,1,6.165,1.183,12.4,12.4,0,0,1,5.2,3.214,13.942,13.942,0,0,1,2.939,5.412,21.8,21.8,0,0,0,1.183,3.118,15.492,15.492,0,0,0,1.876,2.855,17.353,17.353,0,0,0,5.376,4.158,30.809,30.809,0,0,0,13.047,2.784,53.978,53.978,0,0,0,13.274-.968,34.219,34.219,0,0,0,12.426-5.078,26.87,26.87,0,0,0,8.889-10.12,36.317,36.317,0,0,0,3.56-12.868l.191-1.637.2-1.553.2-1.553.1-.777.2-.753.789-3.011,1.123-2.9a62,62,0,0,1,6.416-10.765c2.449-3.417,5.006-6.81,7.336-10.347a83.652,83.652,0,0,0,6.2-10.98,78.653,78.653,0,0,0,6.428-23.621,120.121,120.121,0,0,0,.263-23.322,104.862,104.862,0,0,0-6.356-27.42A90.051,90.051,0,0,0,287.43,93.343l.06.753A128.667,128.667,0,0,0,298,74.454a81.216,81.216,0,0,0,5.878-21.47,53.364,53.364,0,0,0-1.78-22.139,44.331,44.331,0,0,0-4.564-10.191,40.526,40.526,0,0,0-3.214-4.588,30.526,30.526,0,0,0-3.895-4.074l-.072-.06-.108-.024A81.216,81.216,0,0,0,268.086,8.9c-1.876-.048-3.74.179-5.6.287l-2.784.37a27.427,27.427,0,0,0-2.772.478A52.027,52.027,0,0,0,246.2,13.317a55.478,55.478,0,0,0-18.364,12.677,62.329,62.329,0,0,0-7.049,8.7,55.734,55.734,0,0,0-5.388,9.845l.573-.394-32.354-.072.609.37a74.959,74.959,0,0,0-13.107-18.447,57.259,57.259,0,0,0-18.746-12.641,61.888,61.888,0,0,0-22.151-4.48,71.431,71.431,0,0,0-11.3.669,62.88,62.88,0,0,0-11.088,2.473l-.251.084-.167.239a57.819,57.819,0,0,0-8.949,19.785A58.616,58.616,0,0,0,96.9,42.9a67.258,67.258,0,0,0,.251,10.86,88.69,88.69,0,0,0,4.875,21.052,100.2,100.2,0,0,0,9.355,19.463l.084-1.171a74.862,74.862,0,0,0-7.575,11.087,92.041,92.041,0,0,0-5.795,12.031,90.732,90.732,0,0,0-6.2,25.855,91.871,91.871,0,0,0,1.661,26.464l1.493,6.452,1.816,6.44q1.111,3.118,2.282,6.225l1.35,3.023c.454,1,.872,2.031,1.422,2.987a81.63,81.63,0,0,0,6.966,11.243c2.6,3.56,5.5,6.846,8.041,10.359a28.081,28.081,0,0,1,5.329,11.577c.729,4.206.6,8.626.956,12.975s.992,8.805,3.035,12.76a20.263,20.263,0,0,0,9.546,8.782,48.417,48.417,0,0,0,12.533,3.548,60.416,60.416,0,0,0,12.951.932,28.632,28.632,0,0,0,8.65-1.6,18,18,0,0,0,8.387-6.261,29.893,29.893,0,0,0,2.927-4.731c.024-.119-.239.191-.848,1.063a41.406,41.406,0,0,1-3.142,4.11,17.979,17.979,0,0,1-6.607,4.636,27.3,27.3,0,0,1-9.283,1.756,58.282,58.282,0,0,1-10.311-.657,66.344,66.344,0,0,1-10.179-2.234,36.931,36.931,0,0,1-4.636-1.792c-.7-.394-1.4-.777-2.091-1.159a22.009,22.009,0,0,1-1.888-1.314,17.261,17.261,0,0,1-5.161-6.488,25.487,25.487,0,0,1-1.9-6.559c-.311-1.947-.442-3.537-.538-4.636-.227-3.023-.3-6.069-.454-9.164l-.239-2.366-.119-1.183c-.072-.394-.179-.777-.263-1.171l-.55-2.342-.848-2.258a35.782,35.782,0,0,0-4.839-8.184c-1.876-2.533-3.883-4.911-5.759-7.384a84.375,84.375,0,0,1-15.568-33.764l-1.051-4.624c-.323-1.553-.5-3.118-.753-4.684l-.358-2.342a17.321,17.321,0,0,1-.275-2.354l-.3-4.743a37.133,37.133,0,0,1-.048-4.755c.06-1.589.024-3.178.143-4.767a97.664,97.664,0,0,1,3.393-18.842l1.493-4.576c.49-1.529,1.147-3,1.72-4.5A90.6,90.6,0,0,1,109.05,98.9Zm-9.116,16.022c.5-.824-1.912,5.9-2.342,7.025-.215.43.131-1.087.669-2.82A37.449,37.449,0,0,1,99.934,114.921Z" transform="translate(-91.568 -8.856)"/></g></g><g transform="translate(138.896 55.596)"><path class="d" d="M148.49,52.521a31.148,31.148,0,0,1-3.417,1.673c-1.159.526-2.282,1.075-3.369,1.673a65.151,65.151,0,0,0-17.79,14.54A14.177,14.177,0,0,0,122.766,72c-.574,1.027.55.287.908-.072,2.294-2.4,4.755-4.97,6.846-7.025A56.636,56.636,0,0,1,143.7,55.83c4.707-2.449,9.463-4.636,14.074-7.085.323-.179,1.685-.92.693-.741a18.287,18.287,0,0,0-3.226,1.266c-.55.251-1.111.49-1.661.741s-1.111.526-1.685.8C150.76,51.362,149.6,51.888,148.49,52.521Zm.884-.251c-.072-.048.179-.335.275-.275C149.72,52.043,149.469,52.33,149.374,52.27Z" transform="translate(-122.606 -47.977)"/></g><g transform="translate(247.127 55.444)"><path class="d" d="M241.792,63.836c-1.876-1.744-3.548-3.716-5.5-5.3a54.635,54.635,0,0,0-20.67-10.287,16.6,16.6,0,0,0-1.924-.382c-1.159-.119-.048.621.43.8,3.166,1.087,6.571,2.186,9.343,3.2a42.882,42.882,0,0,1,13.573,8.519A147.038,147.038,0,0,1,248.089,71.7c.251.263,1.326,1.4.9.49a18.362,18.362,0,0,0-2.079-2.82c-.741-.956-1.6-1.852-2.437-2.808A26.124,26.124,0,0,0,241.792,63.836Zm.538.753c.024-.084.382.06.358.167C242.676,64.84,242.306,64.708,242.33,64.589Z" transform="translate(-213.193 -47.849)"/></g><g transform="translate(167.645 123.429)"><path class="d" d="M146.909,146.83a42.683,42.683,0,0,0,8.2,20.275,36.706,36.706,0,0,0,7.838,7.73,41.43,41.43,0,0,0,9.714,4.958,49.7,49.7,0,0,0,34.075-.323,46.774,46.774,0,0,0,7.73-3.68,43.856,43.856,0,0,0,6.906-5.006,35.193,35.193,0,0,0,9.713-13.776,28.093,28.093,0,0,0,1.709-8.28,54.474,54.474,0,0,0-.358-8.28,51.41,51.41,0,0,0-1.613-8.077,42.459,42.459,0,0,0-3.047-7.623,35.95,35.95,0,0,0-10.478-12.342,39.131,39.131,0,0,0-14.528-6.667,39.763,39.763,0,0,0-5.52-.872,35.831,35.831,0,0,0-5.663-.012c-3.274.37-3.178.777-1.924.908,1.314.108,3.644.311,5.114.442a39.436,39.436,0,0,1,25.449,11.53,36.546,36.546,0,0,1,7.432,11.553,46.72,46.72,0,0,1,3.13,12.6,53.68,53.68,0,0,1,.358,5.711,22.183,22.183,0,0,1-.155,2.82c-.06.466-.1.932-.167,1.4l-.287,1.386a28.231,28.231,0,0,1-4.648,10.287,41.021,41.021,0,0,1-17.862,13.788A48.131,48.131,0,0,1,185.7,180.8a46.5,46.5,0,0,1-21.219-7.061,37.685,37.685,0,0,1-13.6-17.264,34.158,34.158,0,0,1-1.47-21.661,30.342,30.342,0,0,1,4.791-9.833,38.145,38.145,0,0,1,7.778-7.79c5.914-4.468,12.9-7.4,20.036-9.5.5-.131,1.4-.454,2.4-.693s2.091-.526,2.939-.777c1.7-.49,2.449-.824-.394-.478a40.359,40.359,0,0,0-5.173.932c-.956.239-1.936.478-2.915.729-.968.311-1.936.633-2.879.932-1.9.574-3.62,1.386-5.054,1.959-1.422.609-2.473,1.219-3.059,1.493l-1.171.585-1.135.669c-.753.454-1.517.9-2.282,1.35a49.832,49.832,0,0,0-4.289,3.19,34.672,34.672,0,0,0-7.264,8.053,31.261,31.261,0,0,0-4.289,10.144A32.1,32.1,0,0,0,146.909,146.83Zm.179-5.269c-.155.275-.394-1.8-.108-2.139C147.124,139.171,147.292,141.226,147.089,141.561Z" transform="translate(-146.668 -104.751)"/></g><g transform="translate(164.571 102.121)"><g transform="translate(0.544 1.081)"><path d="M156.8,89.612c-2.712-4.588-17.372,0-10.371,9.7C150.213,104.546,163.81,101.488,156.8,89.612Z" transform="translate(-144.55 -87.822)"/></g><path class="d" d="M156.55,99.752a4.388,4.388,0,0,1-3.166,1.338,10.025,10.025,0,0,1-3.321-.49,5.2,5.2,0,0,1-2.174-1.183,9,9,0,0,1-1.493-2.115,5.249,5.249,0,0,1-.335-4.743c1.446-2.891,5.807-4.289,8.578-3.214a3.388,3.388,0,0,1,1.111.765c.215.251.526.119.693-.2a1.206,1.206,0,0,0-.024-1.159,4.382,4.382,0,0,0-2.437-1.6,7.028,7.028,0,0,0-2.9-.143,8.625,8.625,0,0,0-4.755,2.4,7.465,7.465,0,0,0-2.139,3.955,7.591,7.591,0,0,0,.645,4.289,13.506,13.506,0,0,0,1.016,1.876,5.933,5.933,0,0,0,1.482,1.661,8.023,8.023,0,0,0,4.122,1.565,8.648,8.648,0,0,0,4.373-.693,6.336,6.336,0,0,0,3.262-3.166,6.558,6.558,0,0,0,.263-4.385,9.634,9.634,0,0,0-1.947-3.6c-.263-.3-1.278-1.446-1.171-.394a18.238,18.238,0,0,0,1.243,3.023,6.445,6.445,0,0,1,.466,3.238A5.524,5.524,0,0,1,156.55,99.752Zm.812-.394c-.131-.06-.191-.5-.024-.442S157.566,99.442,157.363,99.358Z" transform="translate(-144.095 -86.917)"/></g><g transform="translate(239.949 102.599)"><g transform="translate(0.939 0.621)"><path d="M215.413,102.094c5.161,1.326,12.282-12.282.478-14.194C209.511,86.873,202.056,98.653,215.413,102.094Z" transform="translate(-207.971 -87.837)"/></g><path class="d" d="M208.756,94.907a4.44,4.44,0,0,1,1.29-3.19,9.875,9.875,0,0,1,2.7-2,5.142,5.142,0,0,1,2.378-.693,8.919,8.919,0,0,1,2.557.442,5.239,5.239,0,0,1,3.584,3.118c1.027,3.071-1.075,7.145-3.8,8.34a3.434,3.434,0,0,1-1.326.239c-.323-.024-.454.287-.346.633a1.242,1.242,0,0,0,.836.8,4.318,4.318,0,0,0,2.856-.6,7.157,7.157,0,0,0,2.151-1.947,8.607,8.607,0,0,0,1.661-5.066,7.382,7.382,0,0,0-1.29-4.3,7.575,7.575,0,0,0-3.489-2.581,12.511,12.511,0,0,0-2.043-.609,6.012,6.012,0,0,0-2.222-.131,8,8,0,0,0-4.014,1.8,8.629,8.629,0,0,0-2.6,3.584,6.39,6.39,0,0,0-.06,4.54,6.567,6.567,0,0,0,2.915,3.286,9.967,9.967,0,0,0,3.919,1.171c.394.024,1.924.108,1.1-.55a17.243,17.243,0,0,0-3.011-1.255,6.475,6.475,0,0,1-2.617-1.959A5.53,5.53,0,0,1,208.756,94.907Zm-.3.848c.143-.048.49.215.323.3C208.649,96.138,208.266,95.839,208.457,95.756Z" transform="translate(-207.185 -87.317)"/></g><g transform="translate(196.618 157.081)"><path class="d" d="M172.677,146.529c-.3-1.051.454-2.1.466-3.13.06-3.321-.37-6.5-.024-9.5a3.5,3.5,0,0,0,.048-.789c-.072-.454-1.278,0-1.446.227a4.366,4.366,0,0,0-.526,4.11c1.29,4.48-1.493,8.925.956,13.238.084.155.43.789.836.382s.119-1.255.084-1.434C172.844,148.62,172.975,147.58,172.677,146.529Zm-.311.37c.155-.024.466.131.275.155C172.486,147.067,172.175,146.923,172.366,146.9Z" transform="translate(-170.918 -132.917)"/></g><g transform="translate(222.195 157.058)"><path class="d" d="M192.857,137.572c.3,1.051-.454,2.1-.466,3.13-.06,3.321.37,6.5.024,9.5a3.5,3.5,0,0,0-.048.789c.072.454,1.278,0,1.446-.227a4.366,4.366,0,0,0,.526-4.11c-1.29-4.48,1.493-8.925-.956-13.238-.084-.155-.43-.789-.836-.382s-.119,1.255-.084,1.434C192.689,135.469,192.558,136.509,192.857,137.572Zm.311-.382c-.155.024-.466-.131-.275-.155C193.036,137.022,193.358,137.166,193.167,137.19Z" transform="translate(-192.326 -132.898)"/></g><g transform="translate(76.296 166.145)"><g transform="translate(0)"><path class="d" d="M70.485,155.207c-.143,7.647-.43,15.257-.167,22.629.108,2.975.3,5.974.3,8.865.012,1.458-.06,2.927,0,4.468a9.754,9.754,0,0,0,1.195,4.719,11.009,11.009,0,0,0,3.417,3.357,33.643,33.643,0,0,0,3.895,2.234c1.314.645,2.629,1.278,4,1.8s2.676,1.159,4.074,1.565a74.782,74.782,0,0,0,33.406,3.047,48.194,48.194,0,0,0,5.711-1.027c1.649-.442,1.565-.789.848-.92a11.039,11.039,0,0,0-2.76-.131,137.76,137.76,0,0,1-15.066.645,91.835,91.835,0,0,1-14.1-1.243c-.98-.155-1.947-.406-2.927-.609l-1.458-.323c-.478-.12-.956-.287-1.434-.418L86.554,203l-2.784-1.1a47.6,47.6,0,0,1-5.424-2.533,16.15,16.15,0,0,1-4.636-3.489,6.941,6.941,0,0,1-1.219-2.473,14.069,14.069,0,0,1-.263-2.867c0-1.971.131-3.991.084-6.022-.108-4-.2-7.993-.311-11.972s-.179-7.933-.131-11.876c.024-1.959.072-3.931.227-5.854.036-.478.072-.956.143-1.434a12.444,12.444,0,0,1,.215-1.386,5.029,5.029,0,0,1,.37-1.219,7.037,7.037,0,0,1,.633-1.075,13.528,13.528,0,0,1,4.361-3.3,40.652,40.652,0,0,1,5.317-2.174,75.726,75.726,0,0,1,11.326-2.652c1.063-.215,5.687-.7,2.688-1a28.433,28.433,0,0,0-5.89.263c-2.055.287-3.871.717-4.516.86-1.768.442-3.56.872-5.329,1.482a29.444,29.444,0,0,0-5.245,2.234,12.116,12.116,0,0,0-4.492,3.919,5.463,5.463,0,0,0-.657,1.47,13.646,13.646,0,0,0-.311,1.482A27.766,27.766,0,0,0,70.485,155.207Zm.6-2.7c-.191.131-.275-1.016-.048-1.159C71.214,151.252,71.3,152.363,71.082,152.507Z" transform="translate(-70.211 -140.504)"/></g></g><g transform="translate(77.382 177.306)"><path class="d" d="M95.434,163.71a18.733,18.733,0,0,1-3.465-.573c-.573-.131-1.135-.263-1.7-.382-.562-.155-1.111-.3-1.661-.418a41.172,41.172,0,0,1-10.2-3.31c-.789-.37-1.493-.872-2.234-1.3a14.074,14.074,0,0,1-1.912-1.637,7.682,7.682,0,0,1-2.246-4.182,9.346,9.346,0,0,1-.108-1.637c.024-.968-.657-.048-.729.49a6.678,6.678,0,0,0,1.219,4.719,9.77,9.77,0,0,0,1.613,1.8c.621.466,1.219.932,1.816,1.29A50,50,0,0,0,90,163.615a54.71,54.71,0,0,0,14.636,1.159c.335-.024,1.768-.1.86-.358a15.2,15.2,0,0,0-3.19-.251C100.105,164.152,97.8,163.806,95.434,163.71Zm.824.239c-.036-.084.311-.2.346-.108S96.306,164.057,96.258,163.949Z" transform="translate(-71.12 -149.845)"/></g><g transform="translate(77.074 183.705)"><path class="d" d="M98.148,169.382a31.73,31.73,0,0,1-3.835-.478c-1.255-.275-2.5-.573-3.728-.765a51.328,51.328,0,0,1-11.362-3.226l-1.29-.609c-.43-.2-.812-.478-1.219-.717a17.169,17.169,0,0,1-2.246-1.637,8.51,8.51,0,0,1-2.7-4.48,10.029,10.029,0,0,1-.143-1.8c.024-1.063-.669-.048-.717.538a6.964,6.964,0,0,0,1.565,5.114,10.6,10.6,0,0,0,1.9,1.84c.346.251.681.514,1.016.741q.538.287,1.039.573a40.72,40.72,0,0,0,7.754,3.023c.657.191,1.314.406,1.983.573l2.007.478c1.326.346,2.676.585,4.026.824a56.832,56.832,0,0,0,16.117.836c.37-.048,1.936-.215.932-.418a18.358,18.358,0,0,0-3.513-.036c-1.219,0-2.461-.084-3.728-.143C100.741,169.513,99.474,169.453,98.148,169.382Zm.908.251c-.036-.084.335-.2.382-.1C99.486,169.621,99.116,169.74,99.056,169.633Z" transform="translate(-70.862 -155.201)"/></g><g transform="translate(77.091 205.994)"><path class="d" d="M109.89,190.062c-3.56.1-7.121-.346-10.55-.55-1.386-.1-2.784-.167-4.11-.37-1.35-.227-2.7-.526-4.038-.777-1.326-.3-2.64-.645-3.955-.968-1.278-.418-2.581-.741-3.811-1.231a28.162,28.162,0,0,1-6.954-3.513,11.449,11.449,0,0,1-4.54-5.7,9.5,9.5,0,0,1-.358-2.461c.06-1.47-.681-.048-.693.765a9.135,9.135,0,0,0,3,6.607,18.625,18.625,0,0,0,5.795,3.7,68.418,68.418,0,0,0,10.872,3.465l2.772.6a26.823,26.823,0,0,0,2.8.514c1.876.215,3.752.346,5.627.454a157.6,157.6,0,0,0,22.175-.215c.514-.048,2.664-.239,1.278-.43a38.618,38.618,0,0,0-4.839-.024C116.987,190.038,113.463,189.954,109.89,190.062Zm1.266.167c-.06-.072.43-.227.514-.131C111.742,190.169,111.24,190.325,111.157,190.229Z" transform="translate(-70.876 -173.856)"/></g><g transform="translate(77.104 210.844)"><path class="d" d="M111.095,194.134c-3.656.108-7.312-.335-10.837-.514-1.434-.072-2.856-.155-4.241-.311-1.362-.131-2.76-.5-4.134-.741s-2.712-.645-4.062-.956c-1.338-.358-2.64-.777-3.931-1.207a30.867,30.867,0,0,1-7.181-3.525,11.828,11.828,0,0,1-4.743-5.783,8.966,8.966,0,0,1-.382-2.533c.06-1.505-.681-.036-.693.789a9.177,9.177,0,0,0,3.166,6.727,19.668,19.668,0,0,0,6,3.728,69.711,69.711,0,0,0,11.183,3.429,54.383,54.383,0,0,0,5.735,1.039c1.936.2,3.859.311,5.771.406a171.884,171.884,0,0,0,22.76-.251c.526-.048,2.736-.239,1.3-.43a38.085,38.085,0,0,0-4.97-.012C118.383,194.1,114.763,194.026,111.095,194.134Zm1.3.167c-.072-.072.442-.227.526-.131C112.994,194.241,112.493,194.4,112.4,194.3Z" transform="translate(-70.887 -177.916)"/></g><g transform="translate(77.07 195.248)"><path class="d" d="M105.019,180.965a70.8,70.8,0,0,1-9.391-.753,69.181,69.181,0,0,1-14.062-3.764,26.405,26.405,0,0,1-6.01-3.477,10.581,10.581,0,0,1-3.716-5.329,9.1,9.1,0,0,1-.263-2.21c.048-1.314-.681-.048-.7.681a7.708,7.708,0,0,0,.55,3.25,8.919,8.919,0,0,0,.789,1.493l.466.7c.179.215.358.418.55.633a16.193,16.193,0,0,0,4.982,3.632,57.729,57.729,0,0,0,9.582,3.525c1.637.43,3.262.884,4.922,1.207.824.167,1.637.382,2.473.526s1.685.227,2.521.3a118.22,118.22,0,0,0,19.833.012c.454-.048,2.39-.215,1.147-.418a30.124,30.124,0,0,0-4.337-.06C111.363,181,108.221,180.893,105.019,180.965Zm1.135.179c-.06-.072.382-.227.454-.131S106.226,181.24,106.154,181.144Z" transform="translate(-70.859 -164.862)"/></g><g transform="translate(76.965 189.741)"><path class="d" d="M101.738,176.116a58.042,58.042,0,0,1-8.6-1.231,52.363,52.363,0,0,1-12.927-3.525,27.145,27.145,0,0,1-2.867-1.493,19.919,19.919,0,0,1-2.509-1.924,9.215,9.215,0,0,1-3.333-7.169c.036-1.207-.681-.036-.7.633a8.508,8.508,0,0,0,1.864,5.747,14.72,14.72,0,0,0,4.433,3.608,41.327,41.327,0,0,0,8.794,3.405c1.493.478,3.023.753,4.54,1.135,1.517.311,3.059.573,4.576.848a64.882,64.882,0,0,0,18.292.478c.418-.048,2.186-.3,1.039-.454a27.777,27.777,0,0,0-3.979.048C107.581,176.331,104.689,176.176,101.738,176.116Zm1.039.227c-.048-.084.37-.215.43-.108C103.256,176.307,102.838,176.439,102.778,176.343Z" transform="translate(-70.771 -160.253)"/></g><g transform="translate(77.075 200.111)"><path class="d" d="M107.969,185.095c-3.405.084-6.822-.37-10.1-.609a24.786,24.786,0,0,1-3.907-.514c-1.29-.275-2.593-.478-3.859-.8a53.507,53.507,0,0,1-7.4-2.222c-1.207-.418-2.318-.992-3.465-1.517l-1.613-.932c-.538-.311-1.016-.693-1.517-1.039a15.584,15.584,0,0,1-2.6-2.485A9.972,9.972,0,0,1,71.9,171.9a10.45,10.45,0,0,1-.323-2.366c.06-1.4-.681-.048-.7.729a8.952,8.952,0,0,0,2.736,6.4,18.5,18.5,0,0,0,5.472,3.692,59.386,59.386,0,0,0,10.371,3.465c1.744.49,3.537.789,5.293,1.195a52.386,52.386,0,0,0,5.4.562,144.921,144.921,0,0,0,21.255-.131c.49-.048,2.557-.227,1.219-.418a32.112,32.112,0,0,0-4.648-.036C114.767,185.095,111.386,185.011,107.969,185.095Zm1.207.179c-.06-.072.418-.227.49-.131C109.737,185.214,109.259,185.37,109.176,185.274Z" transform="translate(-70.863 -168.932)"/></g><g transform="translate(318.293 148.313)"><path class="d" d="M295.963,131.781a6.758,6.758,0,0,1,2.545,2.844,12.047,12.047,0,0,1,.573,3.895c.084,2.712-.1,5.436-.119,8.112-.048,4.349-.2,8.662-.358,12.939-.072,2.139-.155,4.265-.227,6.38s-.119,4.277-.024,6.38c.167,4.218.526,8.328.765,12.39.119,2.031.227,4.038.251,6.022.012.992,0,1.971-.036,2.951a5.685,5.685,0,0,1-.633,2.449,6.4,6.4,0,0,1-2.4,2.485c-.884.478-.824.741-.3.908a2.953,2.953,0,0,0,2.031-.335,6.842,6.842,0,0,0,3.2-4.982,40.041,40.041,0,0,0,.155-5.711c-.131-3.728-.55-7.312-.932-10.5a80.586,80.586,0,0,1-.633-8.782c.012-2.927.167-5.878.3-8.805.287-5.878.693-11.721.7-17.6-.012-1.47-.024-2.939-.143-4.421-.036-.741-.143-1.493-.239-2.234l-.227-1.147a12.076,12.076,0,0,0-.442-1.195,9.858,9.858,0,0,0-3.226-3.513,20.308,20.308,0,0,0-4-2.091,36.783,36.783,0,0,0-8.483-2.186,46.1,46.1,0,0,0-8.59-.406c-.8.024-4.146.251-2.019.741,2.163.442,6.464.609,7.408.765a45.135,45.135,0,0,1,7.73,1.529A27.87,27.87,0,0,1,295.963,131.781Zm-1.458-1.29c.012.179-.8.107-.824-.119C293.657,130.18,294.482,130.264,294.505,130.491Z" transform="translate(-272.757 -125.579)"/></g><g transform="translate(316.222 158.156)"><path class="d" d="M280.028,146.557c1.016-.1,2.031-.191,3.047-.191.514-.012,1.027-.024,1.517-.024.5-.048,1-.108,1.493-.179a25.2,25.2,0,0,0,9.056-2.915,11.876,11.876,0,0,0,3.5-3.13,9.022,9.022,0,0,0,1.577-4.325,7.954,7.954,0,0,0,.024-1.6c-.1-.908-.633.072-.693.478a13.886,13.886,0,0,1-1.075,3.728,10.987,10.987,0,0,1-2.127,2.891,13.974,13.974,0,0,1-5.52,3c-1.016.3-2.067.5-3.094.729-1.051.143-2.1.287-3.154.418-4.218.382-8.387.418-12.557.92-.287.036-1.529.191-.741.406a11.879,11.879,0,0,0,2.772.084C275.966,146.82,277.985,146.784,280.028,146.557Zm-.741-.119c.036.072-.239.239-.287.143C278.964,146.509,279.239,146.342,279.287,146.437Z" transform="translate(-271.024 -133.817)"/></g><g transform="translate(315.451 164.562)"><path class="d" d="M279.508,152.155c2.031-.394,4.134-.239,6.117-.657a29.208,29.208,0,0,0,9.08-3.178,14.548,14.548,0,0,0,1.959-1.338,10.981,10.981,0,0,0,.908-.765l.824-.848a9.509,9.509,0,0,0,2.139-4.146,4.62,4.62,0,0,0,.131-.812,4.02,4.02,0,0,0,.024-.836c-.072-.956-.621.072-.717.454a11.906,11.906,0,0,1-1.553,3.584,13.173,13.173,0,0,1-1.171,1.493,10.765,10.765,0,0,1-1.278,1.278,8.518,8.518,0,0,1-1.266.98,9.021,9.021,0,0,1-1.386.824c-.478.239-.956.49-1.458.7l-1.529.55a36.707,36.707,0,0,1-6.285,1.4c-4.253.573-8.471.8-12.665,1.446-.3.048-1.541.251-.741.43a11.964,11.964,0,0,0,2.808-.012C275.41,152.574,277.453,152.43,279.508,152.155Zm-.753-.108c.048.072-.227.251-.287.155C278.433,152.144,278.7,151.964,278.756,152.048Z" transform="translate(-270.378 -139.179)"/></g><g transform="translate(310.347 180.125)"><path class="d" d="M276.254,163.609c2.294-.263,4.6-.191,6.834-.442a54.378,54.378,0,0,0,10.43-2.294,20.094,20.094,0,0,0,4.707-2.258,10.12,10.12,0,0,0,1.971-1.744,6.316,6.316,0,0,0,1.207-2.378,7.553,7.553,0,0,0,.167-.92,6.039,6.039,0,0,0,0-.932c-.108-1.051-.609.072-.717.514a6.534,6.534,0,0,1-2.043,3.68,17.748,17.748,0,0,1-3.417,2.342c-4.313,2.186-9.259,2.784-13.991,3.25-2.39.215-4.755.442-7.109.478a66.549,66.549,0,0,0-7.073.49c-.323.048-1.709.215-.824.418a15.448,15.448,0,0,0,3.118.048C271.666,163.729,273.936,163.86,276.254,163.609Zm-.824-.131c.048.072-.275.239-.323.143C275.059,163.549,275.37,163.394,275.43,163.478Z" transform="translate(-266.107 -152.205)"/></g><g transform="translate(313.261 170.623)"><path class="d" d="M278.468,158.8a28.658,28.658,0,0,1,3.333-.346c1.111-.1,2.234-.179,3.309-.37a27.921,27.921,0,0,0,9.785-3.728,13.317,13.317,0,0,0,6.093-7.886,6.73,6.73,0,0,0,.215-1.78c-.072-1.051-.609.06-.741.466a14.359,14.359,0,0,1-1.685,3.955,18.346,18.346,0,0,1-2.545,3.154,16.579,16.579,0,0,1-6,3.548,33.559,33.559,0,0,1-6.81,1.589c-2.294.346-4.636.573-6.906.812s-4.564.2-6.87.382c-.323.024-1.685.143-.824.382a14.751,14.751,0,0,0,3.035.2A34.624,34.624,0,0,0,278.468,158.8Zm-.812-.072c.048.072-.251.263-.311.167C277.3,158.826,277.583,158.635,277.655,158.73Z" transform="translate(-268.545 -144.252)"/></g><g transform="translate(307.081 188.256)"><path class="d" d="M273.812,169.3a31.762,31.762,0,0,1,3.536-.072c1.171-.024,2.354-.024,3.5-.108a50.081,50.081,0,0,0,10.729-2.294c3.357-1.207,6.691-2.676,8.973-5.484a4.019,4.019,0,0,0,.848-1.8c.072-.633-.1-.6-.287-.394-.215.2-.37.55-.538.729-1.685,2.449-4.672,3.991-7.037,5.245a26.3,26.3,0,0,1-3.441,1.41c-1.207.311-2.378.717-3.608.908a34.878,34.878,0,0,1-3.668.562l-1.84.2-1.84.108c-4.91.275-9.761.239-14.6.5-.335.024-1.78.119-.872.37a15.025,15.025,0,0,0,3.214.215c1.111.024,2.258.036,3.417.024A34.729,34.729,0,0,0,273.812,169.3Zm-.836-.119c.048.072-.287.227-.335.131C272.593,169.237,272.916,169.082,272.975,169.178Z" transform="translate(-263.373 -159.01)"/></g><g transform="translate(297.187 202.44)"><path class="d" d="M268.495,182.218c3.047-.131,6.105.131,9.068-.06,2.39-.155,4.767-.323,7.109-.478,1.171-.143,2.342-.251,3.5-.418,1.147-.215,2.306-.346,3.429-.633a28.14,28.14,0,0,0,6.535-2.151,10.29,10.29,0,0,0,5.042-4.564,6.422,6.422,0,0,0,.55-2.425c-.036-.729-.2-.7-.358-.43a5.625,5.625,0,0,0-.406,1.051,8.156,8.156,0,0,1-3.5,4.433,23.086,23.086,0,0,1-5.03,2.425,37.538,37.538,0,0,1-9.4,1.888c-3.19.227-6.416.335-9.594.478a140.907,140.907,0,0,1-18.83-.514c-.43-.048-2.282-.287-1.159.167a16.977,16.977,0,0,0,4.1.8A62.57,62.57,0,0,0,268.495,182.218Zm-1.087-.179c.06.072-.37.227-.442.131C266.906,182.1,267.336,181.943,267.408,182.039Z" transform="translate(-255.092 -170.882)"/></g><g transform="translate(293.51 209.204)"><path class="d" d="M266.323,187.675c3.262-.036,6.523.323,9.7.2a110.492,110.492,0,0,0,15.042-1.35,34.488,34.488,0,0,0,7.049-2.091,14.663,14.663,0,0,0,3.154-1.852,8.033,8.033,0,0,0,2.4-2.808,6.332,6.332,0,0,0,.645-2.581c-.048-.789-.2-.753-.358-.466a8.37,8.37,0,0,0-.418,1.123,8.224,8.224,0,0,1-3.919,4.612,25.759,25.759,0,0,1-5.472,2.425,42.689,42.689,0,0,1-10.12,1.768c-3.417.215-6.87.323-10.263.358a158.2,158.2,0,0,1-20.132-1.063c-.454-.06-2.437-.346-1.243.143a19.239,19.239,0,0,0,4.373.932A77,77,0,0,0,266.323,187.675Zm-1.159-.191c.06.084-.406.215-.478.108C264.626,187.519,265.092,187.376,265.164,187.483Z" transform="translate(-252.014 -176.543)"/></g><g transform="translate(290.233 223.128)"><path class="d" d="M286.8,191.319c-2.891.442-5.842.179-8.674.287-4.6.155-9.1.227-13.5.036a65.009,65.009,0,0,1-12.688-1.577c-.585-.119-1.505-.43-2.091-.562-1.231-.3-.179.609.406.86a31.363,31.363,0,0,0,11.291,2.019c6.261.143,12.473.263,18.638.1a69.318,69.318,0,0,0,9.188-.693,27.2,27.2,0,0,0,8.674-2.712c.382-.191,1.864-1.123.765-.812-1.087.346-3.178,1.195-3.656,1.338A50.659,50.659,0,0,1,286.8,191.319Zm1.051.048c-.06-.072.323-.275.394-.191C288.315,191.235,287.933,191.45,287.849,191.367Z" transform="translate(-249.271 -188.197)"/></g><g transform="translate(301.395 194.077)"><path class="d" d="M271.011,176.508c2.8-.2,5.615.036,8.328-.2a60.708,60.708,0,0,0,12.784-2.33,23.988,23.988,0,0,0,5.783-2.593,9.7,9.7,0,0,0,4.122-4.719,6.374,6.374,0,0,0,.394-2.234c-.1-1.3-.585.06-.753.585-.848,3.572-4.325,5.759-7.145,7.121a31.793,31.793,0,0,1-8.435,2.509,80.2,80.2,0,0,1-8.758.872c-5.842.275-11.589.3-17.324.275-.394-.012-2.115-.06-1.051.287a16.211,16.211,0,0,0,3.811.442C265.419,176.58,268.191,176.7,271.011,176.508Zm-1-.143c.048.072-.335.239-.406.143C269.553,176.425,269.936,176.269,270.007,176.365Z" transform="translate(-258.614 -163.882)"/></g><g transform="translate(287.981 216.529)"><path class="d" d="M265.312,201.845c4.158.311,8.316,1.183,12.414,1.183a67.893,67.893,0,0,0,19.176-3.142,21.536,21.536,0,0,0,2.246-.753c.741-.275,1.482-.55,2.21-.812l1.1-.406a10.093,10.093,0,0,0,1.147-.466,7.041,7.041,0,0,0,2.043-1.673,11.466,11.466,0,0,0,2.258-4.385,9.617,9.617,0,0,0,.335-2.461,13.845,13.845,0,0,0-.119-2.413,8.516,8.516,0,0,0-.466-1.744,4.511,4.511,0,0,0-1.135-1.661c-.49-.418-.884-.478-1.063-.418-.131.024-.119.1-.06.2.024.1.084.2.131.335a11.274,11.274,0,0,1,.514,1.565,9.346,9.346,0,0,1,.275,3.835,10.038,10.038,0,0,1-.908,3.62,9.214,9.214,0,0,1-1.971,2.915,7.3,7.3,0,0,1-.609.49l-.323.179-.418.191c-.573.251-1.135.5-1.673.741-1,.442-2.007.884-3.023,1.3-1.039.346-2.091.657-3.13.98a47.03,47.03,0,0,1-6.392,1.434,65.794,65.794,0,0,1-12.987.633A105.548,105.548,0,0,1,262.1,199.8c-4.218-.657-8.387-1.41-12.593-2.282-.573-.084-3.094-.777-1.709.239,1.422,1.039,4.7,1.792,5.412,1.936A73.069,73.069,0,0,0,265.312,201.845Zm-1.446-.514c.06.167-.562.382-.633.179C263.186,201.356,263.807,201.129,263.867,201.332Z" transform="translate(-247.386 -182.674)"/></g><g transform="translate(343.569 88.703)"><g transform="translate(10.282)"><path class="e" d="M304.277,92.7c-.3-1.314.454-2.628.466-3.907.06-4.146-.37-8.124-.024-11.876a5.516,5.516,0,0,0,.048-.992c-.072-.573-1.278.012-1.446.287a6.621,6.621,0,0,0-.526,5.138c1.29,5.6-1.493,11.159.956,16.536.084.191.43.98.836.478.418-.526.119-1.565.084-1.792C304.456,95.333,304.587,94.03,304.277,92.7Zm-.3.478c.155-.024.466.155.275.191C304.1,93.385,303.787,93.206,303.978,93.182Z" transform="translate(-302.518 -75.687)"/></g><g transform="translate(0 10.277)"><path class="e" d="M299.74,86.047c1.314-.3,2.629.454,3.907.466,4.146.06,8.124-.37,11.876-.024a5.518,5.518,0,0,0,.992.048c.573-.072-.012-1.278-.287-1.446a6.621,6.621,0,0,0-5.138-.526c-5.6,1.29-11.159-1.493-16.536.956-.191.084-.98.43-.478.836.526.418,1.565.119,1.792.084C297.124,86.226,298.426,86.357,299.74,86.047Zm-.466-.311c.024.155-.155.466-.191.275C299.059,85.868,299.25,85.545,299.274,85.736Z" transform="translate(-293.912 -84.288)"/></g></g><g transform="translate(38.968 69.65)"><path class="e" d="M61.277,90.207l-5.6.072H51.79c-.108-.012-.275.036-.323-.036l.012-.358.239-5.317.143-2.76.072-1.374.143-1.314a10.016,10.016,0,0,1,1.852-4.672,6.566,6.566,0,0,1,4.014-2.413,5.992,5.992,0,0,1,4.409.98,7.542,7.542,0,0,1,2.413,3.931,17.841,17.841,0,0,1,.478,2.067c.06.37.1.645.143,1.087.072.7.1,1.434.119,2.151l10.3-1.219L76.056,81c.048-.048.024-.155.036-.227l.024-.5c.024-.335.024-.669.024-1.016v-.657l-.012-.538c-.024-.717-.084-1.446-.155-2.163A25.358,25.358,0,0,0,75.16,71.6a15.239,15.239,0,0,0-4.684-7.455,17.968,17.968,0,0,0-7.8-3.895,18.73,18.73,0,0,0-16.344,3.7A16.89,16.89,0,0,0,41.5,71.019a22.046,22.046,0,0,0-1,4.1l-.311,2.031-.227,2.031c-.585,5.4-.789,10.765-.908,16.082s-.108,10.61-.036,15.855c.048,2.628.108,5.245.155,7.85.048,1.446.084,2.891.131,4.337l.036.884v.167h2.294l1.936.012q7.76.054,15.4.1c3.023.024,8,.084,11.111.048,6.452-.072-.072-1.278-3.154-1.446-4.839-.263-9.8-.454-14.779-.585l-7.467-.143c-1.111-.012-2.21-.024-3.321-.048-.024-.024,0,.036-.012-.1l-.048-1.84c-.263-9.833-.454-19.391-.37-27.934.06-3.31.131-6.619.382-9.9a60.656,60.656,0,0,1,1.278-9.725,15.513,15.513,0,0,1,5.066-7.957,16.2,16.2,0,0,1,8.805-3.477,18.05,18.05,0,0,1,9.367,1.625,14.324,14.324,0,0,1,6.75,6.452,22.081,22.081,0,0,1,1.852,9.331v.406l-.012.263c-.048.048-.167.024-.251.048l-.37.036-2.449.263-2.449.263-1.219.167c-.167.012-.323.036-.466.036l-.012-.3-.06-.573c-.072-.526-.155-1.063-.263-1.589a15.4,15.4,0,0,0-.992-3.106A8.2,8.2,0,0,0,63.917,71.9a7.1,7.1,0,0,0-3.083-1.541,7.9,7.9,0,0,0-3.429-.048,8.722,8.722,0,0,0-3.13,1.41,9.857,9.857,0,0,0-3.513,5.639,17.85,17.85,0,0,0-.43,3.226l-.119,3.083-.227,6.368-.048,1.41c.012.108-.048.263.024.323H61.3q.018,4.1.036,8.2c-3.513.036-7.013.06-10.514.1q.09,6.434.179,12.856l5.962-.119,5.3-.131c3.513-.108,7.013-.227,10.514-.335l.155,3.871c.084,2.115.43,11.064.836,5.3.084-1.219.143-2.688.179-4.277.012-.789.024-1.613.036-2.449,0-1.219.012-2.437.012-3.668-1.577.012-3.142.012-4.648.024l-3.166.036c-1.936.036-3.465.06-4.218.072l-9.415.108c-.024-3.166-.036-6.38-.06-9.63l10.55-.072c-.048-3.764-.1-7.611-.143-11.482C62.364,90.195,61.814,90.195,61.277,90.207Zm1.278,4.875c.155-.275.466,1.768.275,2.127C62.687,97.471,62.364,95.428,62.555,95.081Z" transform="translate(-38.968 -59.74)"/></g></g></svg>