<svg xmlns="http://www.w3.org/2000/svg" width="386.485" height="256" viewBox="0 0 386.485 256"><defs><style>.a,.g{fill:#63abda;}.b{fill:#fff;}.c{fill:#a1cde9;}.d{fill:#7f7e7e;}.e,.g{fill-rule:evenodd;}.f{fill:#ecf5fb;}</style></defs><g transform="translate(-17.282 -24.947)"><path class="a" d="M327.3,153.054l-26.115,40.717a1.333,1.333,0,0,0,1.442,2l13.512-3.211,10.749,43.032a5.851,5.851,0,0,0,7.283,4.217l61.888-17.487a5.869,5.869,0,0,0,4.047-7.247l-11.67-41.154,13.621-5.368a1.34,1.34,0,0,0,.073-2.46l-48.4-21.546"/><path class="b" d="M360.034,97.492c-7.453-3.975-5.017-3.32-5.017-3.32,2.8-1.3,5.017-5.138,5.017-5.138L344.959,73.546S307.307,41.6,289.978,32s-20.71-6.411-42.79-2.618S194.583,35.567,185.47,38s-11.585,9.658-18.311,12.312-9.477,12.239-9.477,12.239A380.022,380.022,0,0,1,138.5,101.66c-11.609,20.516-17.123,28.793-24.7,39.069s-20.577,23.11-20.577,23.11,3.745-.618,19.947,12.482,24.782,37.445,24.782,37.445l2.254,7.307,1.442,5.32s11.464-7.731,17.462-11.9,5.32-2.375,22.079-7.937,27.4-9.816,42.79-23.9c3.478-3.187,32.974-32,32.974-32s10.034.315,22.286,1.115,31.689,2.533,31.689,2.533l8.81-.691a17.178,17.178,0,0,1-4.762-10.119,28.367,28.367,0,0,1,1.854-13.112c-8.422-.848-21.122-2.327-21.122-2.327s12.349-4.617,24.733-9.586,15.633-8.568,15.633-8.568c15.439,10.822,28.793-9.186,28.793-9.186Zm-115.281,9.743c-13.2,5.3-15.948,3.781-18.492-.679s-4.69-14.227-4.69-14.227c-.715-4.035,4.12-8.786,4.12-8.786s15.378-1.188,24.612-1.5,8.277,0,16.081,3.187,14.651,6.689,14.651,6.689S257.938,101.939,244.753,107.235Z"/><path class="c" d="M71.619,181.98s13.6-9.767,21.619-18.153c0,0,13.548,4.581,26.563,18.832,8.907,9.743,17.353,24.358,21.861,43.723l-21.595,14.59-4.12,2.193s-2.908-20.54-14.057-36.937C90.766,189.833,71.619,181.98,71.619,181.98Z"/><path class="a" d="M71.619,182.659l-8.737,6.083S75.8,192.16,88.2,205.587s17.075,32.962,17.075,32.962l2.763,11.016,8.277-6.035s-2.46-17.8-11.67-32.683S86.222,188.257,71.619,182.659Z"/><path class="d" d="M359.513,204.472c-.521-2.133,1.321-3.975.158-6.471s-6.132-5.211-5.174-10.555-1.066-7.319-1.975-9.852-5.393-20.431-5.393-20.431c9.646-7.332,13.282-19.159,7.053-28.442s-19.8-13.657-30.356-6.508-8.7,18.965-8.7,18.965c.691,17.22,17.935,19.838,17.935,19.838l14.19,55.9s4.06,2.157,6.58,2.29,3.648-2.545,6.192-6.192C362.579,209.392,360.034,206.6,359.513,204.472ZM334.428,133.58a4.508,4.508,0,0,1,0-9.016c2.5,0,5.2,2.024,5.2,4.508S336.912,133.58,334.428,133.58Z"/><path class="e" d="M274.115,138.451l-6.192,3.769-3.09,1.9-3.03,2.036a103.9,103.9,0,0,0-11.258,9.149c-7.113,6.52-13.609,13.5-20.3,20.019a141.321,141.321,0,0,1-17.135,14.59,97.481,97.481,0,0,1-19.389,10.713c-6.871,2.824-13.778,5.429-20.759,7.61l-5.271,1.563a41.171,41.171,0,0,0-5.308,1.842,29.032,29.032,0,0,0-4.908,2.787c-1.551,1.03-3.017,2.133-4.46,3.248A208,208,0,0,1,135.361,230.1c-6.035,3.854-12.13,7.6-18.008,11.609-11.779,8-22.492,17.123-32.707,26.382-2.945,2.666-7.7,7.138-10.555,10.046-5.9,6.071.957.8,3.975-1.854,9.452-8.41,19.462-17.075,29.593-24.927,10.095-7.9,20.722-14.433,30.09-20.625,4.29-2.848,8.531-5.8,12.615-8.955,2.06-1.563,4.035-3.187,6.1-4.69a36.931,36.931,0,0,1,6.435-3.963,58.512,58.512,0,0,1,7.21-2.412c2.46-.727,4.92-1.478,7.356-2.3,4.872-1.636,9.67-3.429,14.421-5.332,1.188-.485,2.387-.921,3.563-1.442l3.514-1.575c2.387-.969,4.581-2.315,6.859-3.49,1.151-.57,2.206-1.321,3.3-1.975,1.079-.691,2.193-1.333,3.248-2.06l3.139-2.23,1.563-1.115,1.5-1.188,3.005-2.387,2.908-2.5c1.963-1.648,3.781-3.429,5.659-5.15,3.672-3.526,7.259-7.15,10.785-10.785s7.053-7.259,10.725-10.688a91.665,91.665,0,0,1,11.585-9.489c2.024-1.418,4.181-2.714,6.326-4.023,2.157-1.285,4.3-2.581,6.471-3.817,4.338-2.5,8.737-4.872,13.209-7.077,8.931-4.435,18.214-8.071,27.508-11.621l6.968-2.666a36.194,36.194,0,0,0,6.7-3.381,19.37,19.37,0,0,0,5.4-5.15,12.156,12.156,0,0,0,2.06-7.016,13.781,13.781,0,0,0-.509-3.223,14.7,14.7,0,0,0-1.575-3.611,4.5,4.5,0,0,0-1.248-1.575c-.145-.012.218.521.933,2.157a15.728,15.728,0,0,1,1.345,6.217,11.157,11.157,0,0,1-2.3,6.629,18.629,18.629,0,0,1-4.92,4.423c-.824.509-1.563.957-2.218,1.285-.642.351-1.175.594-1.539.763-2,.945-4.157,1.684-6.326,2.5s-4.338,1.612-6.52,2.424c-4.363,1.636-8.774,3.32-13.16,5.162A187.263,187.263,0,0,0,274.115,138.451Zm6.18-3.139c-.388.036,1.818-1.515,2.315-1.563C283.01,133.725,280.793,135.276,280.3,135.313Z"/><path class="e" d="M277.848,79.835c-3.66-1.127-6.92-3.248-10.349-4.641-.836-.327-1.66-.667-2.436-.982l-.3-.121-.315.061c-10.846,2.1-21.34,3.926-31.35,4.193-.776.012-2.048.024-2.836.073-1.624.1.024,1.3.86,1.442,5.078.9,10.579.133,14.93-.763,6.265-1.3,12.518-2.193,18.747-3.211l-.376-.036c8.992,3.9,17.838,7.913,27.218,10.022.533.121,2.811.654,1.587-.279a19.884,19.884,0,0,0-4.787-2C284.973,82.489,281.52,80.974,277.848,79.835Zm1.151.8c-.012-.17.606-.279.618-.061C279.629,80.744,279.011,80.853,279,80.635Z"/><path class="e" d="M240.536,83.228c3.333-.5,6.726.085,9.961-.036l4.241-.145,2.06-.036H257.8l.9.048-.23-.061c7.089,2.751,13.9,5.32,20.274,8.143.63.279,1.66.751,2.327.982,1.382.485.473-1.212-.121-1.624A40.124,40.124,0,0,0,269,85.131c-3.393-1.018-6.689-2.266-9.937-3.6l-.073-.024h-.048c-2.811-.23-5.417-.133-8.1-.158-2.666.012-5.32.061-7.95.17a77.1,77.1,0,0,0-15.572,2.024c-.473.121-2.472.606-1.139.933a15.729,15.729,0,0,0,4.556-.218C233.883,83.8,237.191,83.725,240.536,83.228Zm-1.212-.242c.073.145-.376.5-.461.315C238.779,83.144,239.227,82.792,239.324,82.986Z"/><path class="e" d="M364.312,100.509a8.453,8.453,0,0,1-2.375,3.042c-.982.873-2.06,1.6-3.03,2.412a46.325,46.325,0,0,1-4.969,3.611,17.2,17.2,0,0,1-5.271,2.46,13.915,13.915,0,0,1-10.713-1.818c-.436-.291-1.139-.751-1.575-1.054s-.618-.024-.691.351a1.863,1.863,0,0,0,.315,1.175,10.265,10.265,0,0,0,4.75,3.114,12.121,12.121,0,0,0,5.4.448,20.633,20.633,0,0,0,5.865-1.794l1.345-.691,1.285-.751c.848-.509,1.7-1.018,2.521-1.563a35.871,35.871,0,0,0,4.738-3.6,17.727,17.727,0,0,0,3.866-4.726l.388-.739-.739-.485a48.77,48.77,0,0,0-9.38-4.932c-.376-.145-1.927-.751-1.272.17a9.883,9.883,0,0,0,3.017,2.1c2.23,1.2,4.363,2.775,6.762,4l-.23-.788Zm-.315-.024c-.048.158-.533.218-.485.024C363.573,100.351,364.057,100.291,364,100.485Z"/><path class="e" d="M307.853,129.326c-1.03.194-1.951-.679-2.921-.812-3.139-.436-6.217-.412-9-1.163a3.224,3.224,0,0,0-.739-.158c-.436.012-.182,1.285,0,1.478a3.957,3.957,0,0,0,3.829,1.079c4.423-.727,8.362,2.605,12.724.5.158-.073.788-.364.436-.812s-1.175-.23-1.357-.206C309.864,129.363,308.895,129.132,307.853,129.326Zm.327.351c0-.158.17-.46.17-.267C308.362,129.569,308.18,129.872,308.18,129.678Z"/><path class="e" d="M273.291,151.66c3.563-.024,7.041,1.066,10.458,1.43,2.775.3,5.514.618,8.228.921,2.69.327,5.417.691,8.107.9a98.635,98.635,0,0,0,15.826.036,19.69,19.69,0,0,0,2.727-.388c.8-.206.739-.533.339-.788a3.36,3.36,0,0,0-1.369-.521,135.411,135.411,0,0,0-13.718.061,59.223,59.223,0,0,1-11.234-.824c-3.732-.533-7.453-1.091-11.161-1.563-7.416-.945-14.8-1.575-22.128-.776-.521.061-2.678.291-1.321.776a17.616,17.616,0,0,0,4.811.376C266.226,151.3,269.717,151.684,273.291,151.66Zm-1.248-.412c.048.158-.461.436-.533.242C271.462,151.333,271.983,151.054,272.043,151.248Z"/><path class="e" d="M313.536,106.229c-.933-1.454-.872-3.308-1.43-4.847-.23-.618-.448-1.236-.667-1.854a1.23,1.23,0,0,1,.024-1.054c.17-.351.376-.485,1.006-.86.545-.315,1.091-.618,1.648-.909a39.207,39.207,0,0,1,6.823-2.824,8.705,8.705,0,0,0,1.2-.4c.654-.315-.436-1.224-.848-1.248a9.713,9.713,0,0,0-6.386,2.048c-.763.533-1.551,1.018-2.339,1.491-.4.23-.788.473-1.188.7a3.3,3.3,0,0,0-1.2,1.03,2.939,2.939,0,0,0-.521,1.563,2.766,2.766,0,0,0,.085.836l.194.679c.254.873.509,1.745.776,2.605,1.091,3.429,2.436,6.738,4.969,9.416.182.182.921.982,1.03.218.109-.788-.7-1.89-.86-2.145C315.015,109.283,314.481,107.683,313.536,106.229Zm-.048.679c.133-.085.521,0,.351.121C313.706,107.113,313.318,107.029,313.488,106.907Z"/><path class="e" d="M356.471,216.954a4.426,4.426,0,0,1-4.278,1.733,9.449,9.449,0,0,1-4.556-2.181l.182.291c-2.581-10.531-4.823-21.086-7.4-31.3-2.145-8.422-4.266-16.772-6.289-24.721l-.182-.715-.727-.1a20.583,20.583,0,0,1-11.488-5.587,20.294,20.294,0,0,1-5.877-11.209,19.665,19.665,0,0,1-.048-6.362,18.837,18.837,0,0,1,1.89-6.035,20.7,20.7,0,0,1,3.623-5.15,20.23,20.23,0,0,1,10.894-5.841,20.9,20.9,0,0,1,6.2-.194,20.16,20.16,0,0,1,11.064,5.017,19.246,19.246,0,0,1,3.89,4.69,22.771,22.771,0,0,1,1.394,2.7,22.165,22.165,0,0,1,.921,2.884,20,20,0,0,1-.618,11.8,20.246,20.246,0,0,1-2.363,4.544,21.673,21.673,0,0,1-3.417,3.878c-.63.545-1.091.957-1.43,1.26a3.1,3.1,0,0,0-.7.824c-.109.279.327.024,1.006-.3.351-.17.727-.327,1.079-.521a9.039,9.039,0,0,0,1.151-.691,11.579,11.579,0,0,0,2.072-1.721,20.959,20.959,0,0,0,5.78-13.439,22.926,22.926,0,0,0-.921-7.574,21.206,21.206,0,0,0-3.5-6.774,21.8,21.8,0,0,0-12.252-8.047,21.158,21.158,0,0,0-7.053-.57,20.858,20.858,0,0,0-6.544,1.551,22.441,22.441,0,0,0-13.5,16.154,23.167,23.167,0,0,0-.279,7.2,21.785,21.785,0,0,0,6.168,12.761A22.182,22.182,0,0,0,333,161.6l-.473-.424q6.944,28.157,13.815,56l.073.3.23.182a12.661,12.661,0,0,0,3.042,1.878,8.071,8.071,0,0,0,3.635.727,5.854,5.854,0,0,0,3.551-1.454,3.486,3.486,0,0,0,.679-.654c.194-.23.412-.473.594-.7l.969-1.333a30.857,30.857,0,0,0,1.878-2.824,8.663,8.663,0,0,0,.751-1.7,5.43,5.43,0,0,0,.182-1.975,12.1,12.1,0,0,0-1.03-3.393,5.867,5.867,0,0,1-.46-2.775c.048-.969.327-2.012.436-3.223a5.12,5.12,0,0,0-1.054-3.635c-.4-.509-.776-.885-1.139-1.272l-1.091-1.188a12.827,12.827,0,0,1-1.818-2.472,5.8,5.8,0,0,1-.727-2.787,9.4,9.4,0,0,1,.145-1.5c.085-.545.17-1.1.206-1.66a9.912,9.912,0,0,0-.254-3.417,6.468,6.468,0,0,0-1.794-2.957l.121.218c-1.357-5.053-2.7-10.082-4.048-15.124-.57-2-2.836-10.785-1.975-5.344.424,2.811,1.333,7.15,2.242,11.064s1.794,7.392,2.1,8.64c.085.364.182.715.267,1.091l.073.3.194.182a5.216,5.216,0,0,1,1.6,3.841,12.01,12.01,0,0,1-.17,2.351,12.227,12.227,0,0,0-.267,2.7c.145,4.132,3.854,6.592,5.381,8.955.667,1.212.133,2.775-.1,4.641a8.011,8.011,0,0,0,.17,2.884,9.893,9.893,0,0,0,.46,1.357c.17.388.315.788.461,1.175a5.033,5.033,0,0,1,.364,2.242,5.371,5.371,0,0,1-.812,2.169A51.093,51.093,0,0,1,356.471,216.954Zm3.223-3.963c-.133.073-.012-.351.145-.812a3.7,3.7,0,0,1,.424-1.066c.109-.1.133.315,0,.788A2.268,2.268,0,0,1,359.695,212.991Z"/><path class="e" d="M347.358,199.443c-.9-2.921-1.285-5.974-2-8.846-2.339-9.319-4.811-18.214-6.786-26.684-.145-.606-.364-1.612-.545-2.23-.364-1.285-.618.17-.545.812A66.864,66.864,0,0,0,340.16,174.1c3.829,12.433,5.635,25.267,9.913,37.058.145.412.776,2.157.679.957a25.885,25.885,0,0,0-.982-4.035C348.946,205.32,348.267,202.375,347.358,199.443Zm.121,1.1c.061-.073.315.291.242.388C347.661,201.006,347.407,200.642,347.48,200.545Z"/><path class="e" d="M390.051,181.847c2.484,8.2,4.714,16.493,6.9,24.721.545,2.06,1.079,4.12,1.624,6.168l.4,1.539c.133.5.291,1.066.364,1.466a5.008,5.008,0,0,1-.254,2.605,4.9,4.9,0,0,1-1.539,2.084,5.171,5.171,0,0,1-1.115.654,6.063,6.063,0,0,1-.606.218l-.751.206q-3.036.836-6.047,1.672-27.684,7.853-54.472,15.463a7.634,7.634,0,0,1-1.5.339,4.633,4.633,0,0,1-1.418-.073,4.877,4.877,0,0,1-2.472-1.345,5.061,5.061,0,0,1-1.333-2.545l-.848-3.345q-1.691-6.671-3.345-13.27-3.308-13.2-6.544-26.079l-.23-.9-.9.218q-5.526,1.309-10.931,2.593l-2.63.618c-.267.085-.521-.279-.412-.5q1.4-2.254,2.775-4.5c3.854-6.168,7.635-12.227,11.391-18.25,1.866-2.981,4.944-7.865,6.81-10.955,3.866-6.411-1.139-.606-3.175,2.351-4.956,7.21-9.9,14.8-14.7,22.382-1.188,1.9-2.387,3.793-3.563,5.671l-.885,1.418-.448.727a2.493,2.493,0,0,0,1.527,3.708,2.806,2.806,0,0,0,.776.073c.121-.012.254-.036.376-.048l.218-.048.8-.194q6.4-1.563,12.518-3.054l-1.3-.788q1.872,7.071,3.575,13.488,2.508,9.543,5.029,19.05l2.448,9.525a8.749,8.749,0,0,0,.873,2.448,6.618,6.618,0,0,0,1.769,1.987,6.373,6.373,0,0,0,5.078,1.1q18.941-5.271,37.773-10.531,9.416-2.6,18.8-5.175l4.69-1.285,1.175-.327a7.266,7.266,0,0,0,1.285-.509,6.581,6.581,0,0,0,2.121-1.745,6.721,6.721,0,0,0,1.406-5.211c-.17-.969-.424-1.636-.63-2.448l-.642-2.339q-5.181-18.686-10.47-37.179l-.57,1.151c2.327-.933,4.641-1.854,6.956-2.787l3.466-1.394,1.733-.7.86-.351a5.451,5.451,0,0,0,1.018-.485,2.184,2.184,0,0,0-.364-3.769l-.848-.376-3.405-1.515c-2.266-1.006-4.544-2.012-6.81-3.017q-13.615-6-27.218-11.706c-2.266-.945-11.84-4.968-5.95-1.806,6.035,3.248,18.456,8.64,21.159,9.84,6.229,2.763,12.567,5.647,18.989,8.58l2.412,1.1.606.279.3.133a.443.443,0,0,1,.145.085.47.47,0,0,1,.194.412.45.45,0,0,1-.242.4l-.061.036-.145.061-.315.121-.618.242-2.484.994q-4.981,2.018-10.022,4.048l-.63.255.194.63C388.488,176.66,389.263,179.254,390.051,181.847Zm-1.381-5.986c-.048.267-.618-.969-.848-1.745l-.17-.557.557-.218a1.349,1.349,0,0,1,.533-.145c.133.012-.085.182-.436.4l-.351.206.121.254A5.206,5.206,0,0,1,388.67,175.86Z"/><path class="e" d="M135.531,206.871c-1.079-2.145-1.878-4.411-3.042-6.5-.545-1.066-1.079-2.121-1.612-3.175-.279-.521-.545-1.054-.812-1.563-.315-.5-.642-.982-.957-1.466a82.218,82.218,0,0,0-31.532-29.023,31.653,31.653,0,0,0-3.308-1.515c-2.012-.727-.182.606.667,1.066a125.7,125.7,0,0,1,15.572,9.985,71.411,71.411,0,0,1,10.967,10.422l2.315,2.981a36.049,36.049,0,0,1,2.23,3.03l2.036,3.151a29.627,29.627,0,0,1,1.927,3.211,126.637,126.637,0,0,1,11.161,27.339c.206.654,1.1,3.417.836,1.575a60.71,60.71,0,0,0-1.575-6.338c-.533-2.206-1.418-4.35-2.181-6.58q-.6-1.654-1.2-3.345C136.6,209.028,136.04,207.962,135.531,206.871Zm.545,1.624c.036-.109.46.436.412.57C136.452,209.174,136.04,208.64,136.076,208.495Z"/><path class="e" d="M111.137,223.909c-.46-1.066-.885-2.145-1.3-3.223-.436-1.066-.739-2.193-1.272-3.223-.982-2.084-1.878-4.205-2.957-6.192-7.307-12.724-18.274-22.625-30.6-27.739-.436-.194-1.03-.424-1.636-.63a14.987,14.987,0,0,0-1.7-.545c-2.024-.509-.121.618.739.994a83.338,83.338,0,0,1,15.511,8.822c8.022,5.683,13.972,13.815,18.286,22.395a60.213,60.213,0,0,1,2.969,6.568l1.309,3.345.654,1.672.521,1.709c.715,2.278,1.43,4.532,2.133,6.81q.818,3.454,1.745,6.9c.17.642.9,3.357.751,1.563a61.192,61.192,0,0,0-1.2-6.2c-.267-1.066-.424-2.157-.763-3.236s-.654-2.157-.982-3.248A48.8,48.8,0,0,0,111.137,223.909Zm.46,1.587c.036-.109.436.436.351.582C111.912,226.188,111.561,225.63,111.6,225.5Z"/><path class="e" d="M102.824,229.993c-.46-1.066-.885-2.145-1.3-3.223-.436-1.066-.739-2.193-1.272-3.223-.982-2.084-1.878-4.205-2.957-6.192-7.307-12.724-18.274-22.625-30.6-27.739-.436-.194-1.03-.424-1.636-.63a14.989,14.989,0,0,0-1.7-.545c-2.024-.509-.121.618.739.994a83.338,83.338,0,0,1,15.511,8.822c8.022,5.683,13.972,13.815,18.286,22.395a60.213,60.213,0,0,1,2.969,6.568l1.309,3.345.654,1.672.521,1.709c.715,2.278,1.43,4.532,2.133,6.81q.818,3.454,1.745,6.9c.17.642.9,3.357.751,1.563a61.191,61.191,0,0,0-1.2-6.2c-.267-1.066-.436-2.157-.763-3.236s-.654-2.157-.982-3.248A47.144,47.144,0,0,0,102.824,229.993Zm.461,1.588c.036-.109.436.436.351.582C103.611,232.271,103.248,231.714,103.284,231.58Z"/><path class="e" d="M334.258,123.946a13.593,13.593,0,0,0-2.69.715,4.259,4.259,0,0,0-2.169,1.9,5.442,5.442,0,0,0-.158,4.593,5.534,5.534,0,0,0,3.236,3.054,5.649,5.649,0,0,0,4.29-.218,5.91,5.91,0,0,0,2.908-3.054,3.677,3.677,0,0,0,.351-1.478c-.012-.448-.339-.424-.679-.291a2.537,2.537,0,0,0-.812.509,10.289,10.289,0,0,1-1.951,1.963,5.981,5.981,0,0,1-2.109,1.066,3.26,3.26,0,0,1-3.672-1.963,3.714,3.714,0,0,1,.836-4.072,4.121,4.121,0,0,1,3.757-1.042,5.381,5.381,0,0,1,3.551,2.642c.158.182.533,1.285.909.557a2.048,2.048,0,0,0-.073-1.551,3.68,3.68,0,0,0-.63-1.042,6.492,6.492,0,0,0-2.133-1.842A4.216,4.216,0,0,0,334.258,123.946Zm.642.327c-.024-.158.267-.436.291-.242C335.192,124.188,334.913,124.467,334.9,124.273Z"/><path class="f" d="M332.344,127.133l-4.787-18.517s-4.823-20.553-4.775-21.946,5.453,3.114,5.453,3.114,4.278,18.323,5.974,24.527S339.227,131.265,332.344,127.133Z"/><path class="e" d="M332.974,111.621c1.382,4.75,1.733,9.8,2.739,14.433a1.344,1.344,0,0,1-.606,1.369,1.315,1.315,0,0,1-1.491-.061,1.393,1.393,0,0,1-.473-.618l-.158-.594-.17-.7c-.23-.933-.473-1.854-.7-2.787q-1.418-5.544-2.787-10.967c-1.83-7.222-3.587-14.287-5.114-21.183-.218-.994-.557-2.63-.848-3.623-.582-2.084-1.248.327-1.175,1.381.5,6.568,2.387,13.4,4.1,18.892,1.575,5.041,2.9,10.131,4.108,15.233l.885,3.829c.085.339.133.606.23.994a3.3,3.3,0,0,0,.57,1.079,3.043,3.043,0,0,0,2.145,1.091,3.17,3.17,0,0,0,2.3-.788,3.136,3.136,0,0,0,1.042-2.242,2.712,2.712,0,0,0-.048-.63l-.1-.509-.194-.957-.388-1.915c-2.048-10.191-4.217-20.25-7.634-29.859-.242-.667-1.236-3.514-1.224-1.551a33.207,33.207,0,0,0,1.394,6.592C330.647,102.036,331.592,106.847,332.974,111.621Zm-.073-1.794c-.133.121-.594-.473-.436-.63C332.6,109.077,333.059,109.67,332.9,109.828Z"/><path class="e" d="M145.807,90.208c4.6-9.331,8.568-18.965,12.833-28.393a40.7,40.7,0,0,1,3.648-6.726,13.852,13.852,0,0,1,5.817-4.544,28.544,28.544,0,0,0,3.514-1.818,15.435,15.435,0,0,0,3.1-2.557c.933-.957,1.745-1.975,2.593-2.884a15.386,15.386,0,0,1,2.824-2.363c4.241-2.557,9.525-2.836,14.578-3.539q7.653-.891,15.269-1.757c10.167-1.151,20.274-2.375,30.259-3.963,5.974-.933,11.924-2.1,17.8-3.308,5.865-1.175,11.743-2.315,17.4-1.236a38.207,38.207,0,0,1,8.216,2.787,85.789,85.789,0,0,1,7.744,4.229c5.053,3.066,9.961,6.411,14.821,9.792,9.719,6.762,19.159,13.827,28.054,21.425a274.458,274.458,0,0,1,24.988,24.37L359.1,88.6a12.684,12.684,0,0,1-2.327,2.969l-.715.642c-.242.206-.521.376-.776.57a12.661,12.661,0,0,1-1.648.994,15.031,15.031,0,0,1-7.55,1.491c-5.3-.17-10.385-2.424-15.075-5.029-9.549-5.429-19.026-10.906-28.745-15.851-4.859-2.46-9.779-4.811-14.833-6.835-5.053-1.987-10.252-3.781-15.8-4.266a23.239,23.239,0,0,0-4.205.036l-3.987.557c-2.654.388-5.3.788-7.937,1.224q-7.907,1.309-15.717,2.824l-.279.061-.218.218-9.222,9.476q-2.309,2.363-4.593,4.726a20.493,20.493,0,0,0-3.938,5.574,11.521,11.521,0,0,0-.873,3.429,13.731,13.731,0,0,0,.17,3.466,32.279,32.279,0,0,0,1.866,6.374,40.779,40.779,0,0,0,2.642,6.035,8.5,8.5,0,0,0,2.363,2.666,7.345,7.345,0,0,0,3.369,1.321,16.782,16.782,0,0,0,6.689-.739c2.06-.594,4.084-1.236,6.108-1.915,4.023-1.381,7.974-2.884,11.876-4.46,7.8-3.163,15.427-6.58,22.964-10.082,3.854-1.794,8.967-4.084,14.227-6.035a72.175,72.175,0,0,1,14.918-3.951c4.4-.557,6.629-.509,7.307-.667.691-.121-.158-.3-1.842-.448a38.782,38.782,0,0,0-6.883.145,49.818,49.818,0,0,0-7.489,1.394,117.105,117.105,0,0,0-14.7,5.187c-4.823,2.036-9.561,4.266-14.384,6.362a307.132,307.132,0,0,1-29.375,11.488,32.009,32.009,0,0,1-7.392,1.709,7.269,7.269,0,0,1-3.32-.521,5.878,5.878,0,0,1-2.4-2.206,41.516,41.516,0,0,1-3.017-6.932,21.818,21.818,0,0,1-1.612-7.162,10.355,10.355,0,0,1,2.412-6.423c1.478-1.927,3.333-3.66,5.09-5.526,3.539-3.66,7.053-7.3,10.519-10.87l-.582.327c6.35-1.272,12.627-2.412,18.759-3.405,3.066-.485,6.12-.994,9.1-1.345.715-.036,1.43-.085,2.145-.121.727.048,1.454.109,2.169.158a14.465,14.465,0,0,1,2.157.315c.715.145,1.43.23,2.133.412,7.428,1.794,14.554,4.944,21.51,8.289,6.956,3.369,13.766,7.065,20.528,10.846L328.793,90.8c1.66.982,3.442,1.842,5.162,2.739.873.448,1.806.763,2.7,1.151l1.369.545c.46.158.945.279,1.418.424a21.751,21.751,0,0,0,11.718.667A16.694,16.694,0,0,0,354,95.347a17.172,17.172,0,0,0,2.557-1.563,13.93,13.93,0,0,0,3.963-4.508l.158-.3-.254-.267c-6.144-6.7-12.494-13.245-19.244-19.353-6.726-6.132-13.778-11.876-21.025-17.341s-14.639-10.713-22.2-15.717A126.269,126.269,0,0,0,286.258,29.3a36.835,36.835,0,0,0-13.039-4.241c-4.629-.412-9.2.364-13.633,1.188-4.447.86-8.846,1.794-13.282,2.557-8.858,1.551-17.778,2.751-26.7,3.866s-17.85,2.084-26.781,3.236c-4.4.606-9.113,1.042-13.282,3.478a20.418,20.418,0,0,0-5.114,4.738,15.388,15.388,0,0,1-4.908,4,32.214,32.214,0,0,0-6,3.393,18.166,18.166,0,0,0-4.266,5.6c-2.109,4.048-3.805,8.18-5.623,12.264-3.575,8.192-7.21,16.311-11.294,24.212a304.9,304.9,0,0,1-28.054,45.1,234.525,234.525,0,0,1-17.111,20.189,194.825,194.825,0,0,1-19.5,17.778A444.39,444.39,0,0,1,34.549,206.9c-2.521,1.587-9.149,5.647-13.451,8.228s-6.18,3.842,1.006.061c7.332-3.9,17.971-10.228,27.339-16.36,9.4-6.083,17.462-12.046,20.359-14.178A251.389,251.389,0,0,0,92.753,165.56a218.234,218.234,0,0,0,20.407-22.576A295.107,295.107,0,0,0,145.807,90.208Zm-7.162,13.051c.521-.594-2.036,4.581-2.69,5.344C135.434,109.2,138,104.023,138.645,103.26Z"/><path class="g" d="M374.322,54.629c-.3-1.333.461-2.666.473-3.963.061-4.205-.376-8.24-.024-12.046a5.6,5.6,0,0,0,.048-1.006c-.073-.582-1.3.012-1.466.291a6.715,6.715,0,0,0-.533,5.211c1.309,5.683-1.515,11.318.969,16.772.085.194.436.994.848.485.424-.533.121-1.587.085-1.818C374.491,57.283,374.637,55.962,374.322,54.629Zm-.315.473c.158-.024.473.158.279.194C374.14,55.32,373.813,55.138,374.006,55.1Z"/><path class="g" d="M368.02,49.576c1.333-.3,2.666.46,3.963.473,4.205.061,8.24-.376,12.046-.024a5.6,5.6,0,0,0,1.006.048c.582-.073-.012-1.3-.291-1.466a6.715,6.715,0,0,0-5.211-.533c-5.683,1.309-11.318-1.515-16.772.969-.194.085-.994.436-.485.848.533.424,1.587.121,1.818.085C365.366,49.746,366.687,49.879,368.02,49.576Zm-.473-.315c.024.158-.158.473-.194.279C367.329,49.394,367.511,49.067,367.547,49.261Z"/><path class="g" d="M251.891,222.613c-.3-1.333.46-2.666.473-3.963.061-4.205-.376-8.24-.024-12.046a5.593,5.593,0,0,0,.048-1.006c-.073-.582-1.3.012-1.466.291a6.715,6.715,0,0,0-.533,5.211c1.309,5.683-1.515,11.318.969,16.772.085.194.436.994.848.485.424-.533.121-1.587.085-1.818C252.06,225.267,252.193,223.946,251.891,222.613Zm-.315.473c.158-.024.473.158.279.194C251.7,223.3,251.382,223.122,251.575,223.085Z"/><path class="g" d="M245.589,217.559c1.333-.3,2.666.46,3.963.473,4.205.061,8.24-.376,12.046-.024a5.593,5.593,0,0,0,1.006.048c.582-.073-.012-1.3-.291-1.466a6.715,6.715,0,0,0-5.211-.533c-5.683,1.309-11.318-1.515-16.772.969-.194.085-.994.436-.485.848.533.424,1.587.121,1.818.085C242.923,217.729,244.244,217.862,245.589,217.559Zm-.485-.315c.024.158-.158.473-.194.279C244.886,217.378,245.08,217.05,245.1,217.244Z"/><path class="g" d="M67.438,117.693c3.03-.133,6.059-.061,9.064.073l4.5.218c.751.036,1.491.061,2.23.1l1.163.036,2.133.024c.012-1.006.012-1.987.024-2.981-.012-6.871-.036-13.645-.048-20.165q-11.343.309-22.225.618c-6.9.17-13.657.3-20.274.327-1.369,0-3.635,0-5.041.073-2.921.133.061,1.3,1.466,1.43,8.81.885,18.42.46,26.175-.073q4.726-.327,9.44-.509l4.714-.17,4.181-.109c-.036,3.333-.061,6.665-.1,9.985q-.091,4.853-.182,9.683l-.23-.012-.388-.012-1.406-.024-2.811-.048-5.6-.073q-5.6-.055-11.149,0c-7.416.085-14.772.376-22.067,1.03-.957.085-5.017.436-2.412.848a61.3,61.3,0,0,0,9.125.085C54.072,117.862,60.713,118,67.438,117.693Zm-2.4-.315c.121.158-.8.473-.957.279C63.96,117.5,64.881,117.184,65.039,117.378Z"/><path class="g" d="M77.315,89.142c8.931-.327,17.887.424,26.563.424H106.6c-.061-7.489-.109-14.881-.17-21.958q-16.032.345-31.35.691c-9.864.194-19.523.351-28.963.388-1.83.012-4.847.012-6.726.073-3.9.145.061,1.3,1.939,1.43,11.73.885,24.527.448,34.876-.1,4.872-.254,9.743-.436,14.6-.582q3.654-.091,7.283-.17l6.738-.109c-.036,6.18-.061,12.361-.1,18.5q-7.653-.073-15.269-.158-7.98-.055-15.911-.012c-10.567.085-21.062.376-31.459,1.1-1.272.085-6.689.448-3.211.86a107.721,107.721,0,0,0,12.155.061C59.5,89.348,68.335,89.469,77.315,89.142Zm-3.2-.3c.17.158-1.066.473-1.285.279C72.661,88.96,73.909,88.645,74.115,88.839Z"/><path class="g" d="M60.022,61.864a50.756,50.756,0,0,1,5.6-.012l2.787.158,1.394.085,2.375.073c0-.969.012-1.939.012-2.9.012-.63,0-1.26-.012-1.89-.085-2.933-.158-5.841-.242-8.713-.109-3.223-.206-6.4-.315-9.525q-7.853.327-15.39.654c-4.69.182-9.295.315-13.815.376-1.03.012-2.727.024-3.781.1-2.193.145.073,1.3,1.127,1.43,6.629.848,13.827.376,19.632-.194,1.878-.182,3.745-.339,5.623-.46l5.09-.291.121,4.738.061,5.259c.012,1.745.012,3.5.024,5.247l.012,2.618V60.2l-.012.17-.279-.024-.824-.012-1.951-.024-3.9-.036q-3.89-.018-7.768.073c-5.162.121-10.288.436-15.378,1.066-.715.085-3.757.448-1.806.86a34.24,34.24,0,0,0,6.847.061C50,62.082,54.969,62.191,60.022,61.864Zm-1.806-.3c.1.158-.606.473-.715.291C57.4,61.694,58.107,61.367,58.216,61.561Z"/><path class="g" d="M38.379,102.1c-.3-5.308.46-10.628.473-15.79.061-16.735-.376-32.8-.024-47.952.024-1.091.085-2.884.048-4-.073-2.315-1.3.024-1.466,1.139-1.091,6.968-.885,14.578-.533,20.734,1.309,22.637-1.515,45.068.969,66.8.085.763.436,3.975.848,1.9a38.565,38.565,0,0,0,.085-7.235C38.56,112.676,38.694,107.429,38.379,102.1Zm-.315,1.89c.158-.1.473.642.279.763C38.2,104.847,37.87,104.12,38.064,103.987Z"/><path class="a" d="M98.376,88.645a.323.323,0,0,1-.145-.036.3.3,0,0,1-.109-.412c1.866-3.272,6.714-11.827,6.883-12.167a.3.3,0,1,1,.545.254c-.194.412-6.629,11.73-6.9,12.215A.375.375,0,0,1,98.376,88.645Z"/><path class="a" d="M37.761,77.509a.323.323,0,0,1-.145-.036.3.3,0,0,1-.121-.412l4.278-8.107a.3.3,0,1,1,.533.291l-4.278,8.107A.316.316,0,0,1,37.761,77.509Z"/><path class="a" d="M90.923,88.645a.267.267,0,0,1-.158-.048.3.3,0,0,1-.109-.412C96,79.132,99.564,72.843,101.551,68.953a.311.311,0,0,1,.412-.133.3.3,0,0,1,.133.412c-1.987,3.9-5.562,10.2-10.906,19.256A.3.3,0,0,1,90.923,88.645Z"/><path class="a" d="M84.416,88.645a.267.267,0,0,1-.158-.048.3.3,0,0,1-.109-.412c1.745-2.957,2.945-4.9,3.914-6.459a91.277,91.277,0,0,0,6.7-12.748.3.3,0,0,1,.4-.145.306.306,0,0,1,.145.4,91.682,91.682,0,0,1-6.738,12.821c-.957,1.563-2.157,3.5-3.9,6.447A.285.285,0,0,1,84.416,88.645Z"/><path class="a" d="M78.369,88.645a.373.373,0,0,1-.158-.036A.3.3,0,0,1,78.1,88.2c2.363-4.035,7.2-12.942,10.082-19.22a.3.3,0,0,1,.545.254c-2.9,6.3-7.756,15.221-10.119,19.268A.243.243,0,0,1,78.369,88.645Z"/><path class="a" d="M71.849,88.645a.267.267,0,0,1-.158-.048.3.3,0,0,1-.109-.412A157.689,157.689,0,0,0,80.4,71.425c.4-.86.8-1.721,1.224-2.63a.3.3,0,0,1,.4-.145.306.306,0,0,1,.145.4c-.424.909-.824,1.769-1.224,2.618a158,158,0,0,1-8.858,16.82A.237.237,0,0,1,71.849,88.645Z"/><path class="a" d="M65.233,88.645a.3.3,0,0,1-.17-.048.3.3,0,0,1-.085-.424c2.218-3.393,4.847-8.386,6.968-12.385,1.7-3.2,3.151-5.962,3.926-7.041a.3.3,0,1,1,.485.364c-.751,1.03-2.206,3.781-3.89,6.968-2.121,4.011-4.762,9.016-6.992,12.433A.279.279,0,0,1,65.233,88.645Z"/><path class="a" d="M59.04,88.621a.323.323,0,0,1-.145-.036.289.289,0,0,1-.121-.4c3.357-5.683,3.357-5.683,4.241-7.55.691-1.454,1.975-4.169,5.914-11.791a.315.315,0,0,1,.412-.133.311.311,0,0,1,.133.412c-3.926,7.6-5.211,10.313-5.9,11.767-.9,1.9-.9,1.9-4.241,7.562A.326.326,0,0,1,59.04,88.621Z"/><path class="a" d="M52.545,88.645a.278.278,0,0,1-.17-.048.307.307,0,0,1-.073-.424c1.43-2.072,8.519-14.93,10.579-19.317a.3.3,0,0,1,.4-.145.306.306,0,0,1,.145.4c-2.06,4.387-9.186,17.3-10.628,19.4A.316.316,0,0,1,52.545,88.645Z"/><path class="a" d="M46.268,88.645a.278.278,0,0,1-.17-.048.307.307,0,0,1-.073-.424c1.43-2.072,8.519-14.93,10.579-19.317a.3.3,0,0,1,.4-.145.306.306,0,0,1,.145.4c-2.06,4.387-9.186,17.3-10.628,19.4A.316.316,0,0,1,46.268,88.645Z"/><path class="a" d="M39,88.645a.278.278,0,0,1-.17-.048.307.307,0,0,1-.073-.424c1.43-2.072,8.519-14.93,10.579-19.317a.3.3,0,0,1,.4-.145.306.306,0,0,1,.145.4c-2.06,4.387-9.186,17.3-10.628,19.4A.316.316,0,0,1,39,88.645Z"/></g></svg>