<svg xmlns="http://www.w3.org/2000/svg" width="17.531" height="18.063" viewBox="0 0 17.531 18.063"><defs><style>.a{fill:#080c2f;}.b{fill:#40cccc;}.c{fill:#d8315b;}</style></defs><g transform="translate(0 0)"><path class="a" d="M231.441-146.27H220.7a2.554,2.554,0,0,1-2.606-2.493v-10.272a2.554,2.554,0,0,1,2.606-2.493H225.6a.661.661,0,0,1,.675.646.661.661,0,0,1-.675.646H220.7a1.231,1.231,0,0,0-1.256,1.2v10.272a1.231,1.231,0,0,0,1.256,1.2h10.743a1.231,1.231,0,0,0,1.256-1.2v-6.268a.661.661,0,0,1,.675-.646.661.661,0,0,1,.675.646v6.268A2.554,2.554,0,0,1,231.441-146.27Z" transform="translate(-218.092 164.333)"/><path class="b" d="M231.976-142.27h-6.848a.661.661,0,0,1-.675-.646.661.661,0,0,1,.675-.646h6.848a.661.661,0,0,1,.675.646A.661.661,0,0,1,231.976-142.27Z" transform="translate(-220.548 156.915)"/><g transform="translate(3.697 0)"><path class="c" d="M230.21-154.072l-3.365-2.867a.63.63,0,0,1-.055-.918l7.007-7.516a3.018,3.018,0,0,1,4.124-.227,2.717,2.717,0,0,1,.255,3.959l-7.007,7.516A.7.7,0,0,1,230.21-154.072Zm-1.952-3.406,2.35,2,6.554-7.03a1.451,1.451,0,0,0-.126-2.109,1.621,1.621,0,0,0-2.224.106Z" transform="translate(-225.08 166.306)"/><path class="c" d="M224.34-146.261h0a.631.631,0,0,1-.2-.672l1.539-4.889a.684.684,0,0,1,.847-.434.643.643,0,0,1,.454.809l-1.118,3.552,3.564-1.468a.69.69,0,0,1,.893.339.639.639,0,0,1-.355.854l-4.9,2.021A.7.7,0,0,1,224.34-146.261Z" transform="translate(-224.113 160.517)"/><path class="c" d="M241.012-159.888l-2.938-2.5a.473.473,0,0,1-.042-.688.527.527,0,0,1,.72-.039l2.939,2.5a.473.473,0,0,1,.041.688A.526.526,0,0,1,241.012-159.888Z" transform="translate(-229.436 165.042)"/></g></g></svg>