<svg xmlns="http://www.w3.org/2000/svg" width="21.145" height="17.812" viewBox="0 0 21.145 17.812"><defs><style>.a{fill:#d8315b;}.b{fill:#080c2f;}.c{fill:#40cccc;}</style></defs><g transform="translate(0 0)"><g transform="translate(0 5.933)"><path class="a" d="M322.331-143.244a5.466,5.466,0,0,1-5.578-5.334,5.466,5.466,0,0,1,5.578-5.333,5.466,5.466,0,0,1,5.577,5.333A5.466,5.466,0,0,1,322.331-143.244Zm0-9.375a4.142,4.142,0,0,0-4.227,4.042,4.142,4.142,0,0,0,4.227,4.042,4.141,4.141,0,0,0,4.227-4.042A4.141,4.141,0,0,0,322.331-152.619Z" transform="translate(-311.758 154.431)"/><path class="b" d="M319.19-142.917c-5.726,0-10.236-5.31-10.426-5.536a.626.626,0,0,1,0-.807c.19-.225,4.7-5.536,10.426-5.536s10.235,5.31,10.425,5.536a.626.626,0,0,1,0,.807C329.425-148.227,324.915-142.917,319.19-142.917Zm-9-5.94c1.139,1.2,4.791,4.648,9,4.648s7.862-3.45,9-4.648c-1.14-1.2-4.791-4.648-9-4.648S311.327-150.055,310.188-148.856Z" transform="translate(-308.617 154.796)"/><path class="c" d="M322.6-146.445a3.4,3.4,0,0,0-.047.414,1.973,1.973,0,0,0,2.016,1.928,1.974,1.974,0,0,0,2.017-1.928,1.965,1.965,0,0,0-1.839-1.922S325.071-145.847,322.6-146.445Z" transform="translate(-313.997 151.97)"/></g><path class="b" d="M313.911-156.258a.682.682,0,0,1-.563-.289l-2.323-3.355a.63.63,0,0,1,.19-.9.7.7,0,0,1,.936.183l2.323,3.355a.629.629,0,0,1-.19.895A.7.7,0,0,1,313.911-156.258Z" transform="translate(-309.503 163.251)"/><path class="b" d="M335.453-156.258a.7.7,0,0,1-.373-.107.629.629,0,0,1-.19-.895l2.324-3.355a.7.7,0,0,1,.936-.183.63.63,0,0,1,.19.9l-2.325,3.355A.683.683,0,0,1,335.453-156.258Z" transform="translate(-318.716 163.251)"/><path class="b" d="M325.458-159.586h0a.661.661,0,0,1-.672-.65l.028-4.024a.662.662,0,0,1,.675-.642h0a.661.661,0,0,1,.671.65l-.028,4.024A.662.662,0,0,1,325.458-159.586Z" transform="translate(-314.857 164.902)"/></g></svg>