<svg xmlns="http://www.w3.org/2000/svg" width="13.4" height="17.848" viewBox="0 0 13.4 17.848"><defs><style>.a{fill:#080c2f;}.b{fill:none;stroke:#232629;stroke-linejoin:round;}.c{fill:#40cccc;}.d{fill:#d8315b;}</style></defs><g transform="translate(-412.53 164.675)"><path class="a" d="M425.27-158.078H413.19a.66.66,0,0,1-.66-.66v-2.335a.66.66,0,0,1,.66-.66h12.08a.66.66,0,0,1,.66.66v2.335A.66.66,0,0,1,425.27-158.078Zm-11.42-1.32h10.76v-1.015H413.85Z" transform="translate(0 -1.177)"/><path class="b" d="M423.7-160.633" transform="translate(-4.467 -1.617)"/><path class="c" d="M424.384-163.3h-.66v-.716h-2.806v.716h-.66v-1.046a.33.33,0,0,1,.33-.33h3.466a.33.33,0,0,1,.33.33Z" transform="translate(-3.091 0)"/><path class="a" d="M423.132-142.974h-6.241a2.341,2.341,0,0,1-2.408-2.264v-9.705h1.32v9.705a1.025,1.025,0,0,0,1.088.944h6.241a1.023,1.023,0,0,0,1.087-.944v-9.805h1.32v9.805A2.341,2.341,0,0,1,423.132-142.974Z" transform="translate(-0.781 -3.853)"/><path class="d" d="M419.689-145.268a.5.5,0,0,1-.495-.495v-6.691a.5.5,0,0,1,.495-.495.5.5,0,0,1,.495.495v6.691A.5.5,0,0,1,419.689-145.268Z" transform="translate(-2.666 -4.691)"/><path class="d" d="M427.076-145.268a.5.5,0,0,1-.495-.495v-6.691a.5.5,0,0,1,.495-.495.5.5,0,0,1,.495.495v6.691A.5.5,0,0,1,427.076-145.268Z" transform="translate(-5.621 -4.691)"/><path class="d" d="M423.352-145.268a.5.5,0,0,1-.495-.495v-6.691a.5.5,0,0,1,.495-.495.5.5,0,0,1,.495.495v6.691A.5.5,0,0,1,423.352-145.268Z" transform="translate(-4.131 -4.691)"/></g></svg>