<svg xmlns="http://www.w3.org/2000/svg" width="283" height="41.885" viewBox="0 0 283 41.885"><defs><style>.a{fill:#fff;}</style></defs><g transform="translate(-115.385 -121.048)"><g transform="translate(115.385 121.048)"><g transform="translate(0 0)"><path class="a" d="M196.851,249.986l-.655.221a6.015,6.015,0,0,0-.776.27c-.289.138-.612.281-.965.429-.354.178-.744.4-1.158.626l-1.312.811c-.451.312-.933.644-1.44.993-.492.388-1.023.743-1.552,1.174-1.069.842-2.211,1.762-3.4,2.789-1.2,1-2.444,2.11-3.748,3.231-1.3,1.141-2.64,2.314-4.028,3.5s-2.811,2.387-4.244,3.586c-1.46,1.173-2.911,2.361-4.4,3.472-1.47,1.132-2.98,2.19-4.459,3.188-1.495.989-2.969,1.9-4.427,2.7a41.458,41.458,0,0,1-4.234,2.051c-.679.277-1.351.512-1.978.736-.655.185-1.258.383-1.846.518-.6.113-1.139.255-1.663.307s-1,.1-1.429.124a9.18,9.18,0,0,1-1.99-.139c-.45-.076-.679-.129-.679-.129l.656-.22a6.268,6.268,0,0,0,.757-.266c.289-.137.619-.279.982-.431.361-.175.748-.4,1.164-.622q.61-.372,1.313-.808l1.445-.987c.493-.385,1.024-.744,1.555-1.17,1.07-.841,2.215-1.757,3.407-2.781,1.2-1,2.445-2.105,3.75-3.222,1.3-1.139,2.641-2.312,4.029-3.5s2.813-2.384,4.245-3.583c1.459-1.173,2.911-2.36,4.4-3.472,1.471-1.13,2.977-2.192,4.456-3.19s2.966-1.908,4.422-2.709a41.6,41.6,0,0,1,4.227-2.059c.676-.28,1.35-.516,1.977-.741.651-.192,1.258-.385,1.843-.526.6-.115,1.139-.255,1.662-.312s1-.1,1.431-.128a8.7,8.7,0,0,1,1.989.134Z" transform="translate(-132.083 -248.195)"/><g transform="translate(41.139 5.136)"><path class="a" d="M419.043,303.33l2.425,1.039,2.766,1.169c1.075.427,2.261.948,3.582,1.447s2.728,1.062,4.245,1.555,3.1,1.008,4.749,1.4a27.7,27.7,0,0,0,5.025.809,12.5,12.5,0,0,0,4.769-.625,14.742,14.742,0,0,0,2.279-.978A16.125,16.125,0,0,0,451,307.761a14.209,14.209,0,0,0,3.375-3.788,13.355,13.355,0,0,0,1.716-4.616,15.923,15.923,0,0,0,.09-4.527,13.731,13.731,0,0,0-2.436-6.365,11.179,11.179,0,0,0-1.254-1.474,6.54,6.54,0,0,0-.513-.455,6.56,6.56,0,0,1,.521.446,11.668,11.668,0,0,1,1.316,1.43,15.228,15.228,0,0,1,1.634,2.559,15.925,15.925,0,0,1,1.327,3.753,16.471,16.471,0,0,1,.336,2.272c.017.194.033.389.05.587.017.232.017.416.027.63.022.414,0,.836-.009,1.264a18.22,18.22,0,0,1-1.076,5.338,16.206,16.206,0,0,1-3.057,5.139,14.1,14.1,0,0,1-2.324,2.126,13.281,13.281,0,0,1-2.792,1.6,12.942,12.942,0,0,1-6.35.956,25.073,25.073,0,0,1-5.737-1.222,37.619,37.619,0,0,1-4.928-2.02c-1.5-.756-2.9-1.5-4.133-2.266s-2.355-1.487-3.306-2.191c-.957-.687-1.774-1.309-2.427-1.852C419.73,304.019,419.043,303.33,419.043,303.33Z" transform="translate(-419.043 -286.537)"/></g><path class="a" d="M38.135,245.59s-.88-.379-2.425-1.04l-2.766-1.168c-1.075-.427-2.261-.949-3.582-1.447s-2.728-1.062-4.245-1.555-3.1-1.009-4.749-1.4a27.561,27.561,0,0,0-5.025-.809,12.52,12.52,0,0,0-4.769.625,14.672,14.672,0,0,0-2.279.979,16.166,16.166,0,0,0-2.114,1.388,14.255,14.255,0,0,0-3.375,3.79,13.349,13.349,0,0,0-1.716,4.616A15.922,15.922,0,0,0,1,254.091a13.741,13.741,0,0,0,2.436,6.365,11.106,11.106,0,0,0,1.254,1.473,6.54,6.54,0,0,0,.513.455,6.559,6.559,0,0,1-.521-.446,11.732,11.732,0,0,1-1.316-1.43,15.273,15.273,0,0,1-1.634-2.56A15.934,15.934,0,0,1,.406,254.2a16.5,16.5,0,0,1-.336-2.272c-.017-.194-.033-.389-.05-.587-.017-.232-.017-.416-.027-.63-.022-.414,0-.836.009-1.264a18.21,18.21,0,0,1,1.076-5.337,16.183,16.183,0,0,1,3.057-5.14,14.1,14.1,0,0,1,2.323-2.125,13.357,13.357,0,0,1,2.792-1.6,12.943,12.943,0,0,1,6.35-.957,25.033,25.033,0,0,1,5.737,1.223,37.624,37.624,0,0,1,4.928,2.02c1.5.756,2.9,1.5,4.133,2.266s2.355,1.487,3.306,2.191c.957.688,1.774,1.31,2.427,1.851C37.448,244.9,38.135,245.59,38.135,245.59Z" transform="translate(0.017 -234.218)"/></g></g><g transform="translate(217.33 121.385)"><path class="a" d="M12.209,105.864H7.287V102.6H21.481v3.262H16.559v20.747h-4.35ZM23.427,102.6h4.378v24.009H23.427V102.6Zm7.412,19V107.61a5.153,5.153,0,0,1,4.865-5.294h3.062A5.111,5.111,0,0,1,43.6,107.61v3.548H39.223v-2.375c-.029-2.8-.372-2.919-2.633-2.919-.715,0-1.459.258-1.459,1.545V121.8c0,1.345,1.059,1.574,1.946,1.574,2.032,0,2.118-2.118,2.146-3.663v-1.173H43.6v3.091a5.114,5.114,0,0,1-4.836,5.265H35.7a5.1,5.1,0,0,1-4.865-5.294Zm23.78-10.1,5.58,15.109H55.792L51.5,115.365l-1.03,1.259v9.987H46.091V102.6h4.378l-.029,8.241c1.86-2.719,3.691-5.408,5.38-8.241H60.4Zm13.02,15.109V102.6h4.378v24.009ZM85.324,102.6H89.7v24.009H85.209l-5.294-14.337v14.337H75.537V102.6h4.636l5.151,13.679V102.6Zm6.3,0h14.194v3.262h-4.922v20.747h-4.35V105.864H91.619Zm25.039,13.078H112.08v7.669h6.925v3.262H107.759V102.6h11.246v3.262H112.08v6.61h4.579Zm9.186,1.746v9.186h-4.321V102.6h6.839c.372,0,.744,0,1.145.029a5.093,5.093,0,0,1,4.865,5.151v1.2c0,1.173-.029,2.375-.029,3.548a5.273,5.273,0,0,1-2.4,4.378l3.148,9.7h-4.407l-2.89-9.186h-1.946Zm2.4-11.332h-2.4v8.127h2.69c.858,0,1.23-.687,1.316-1.431.057-.858.114-1.746.114-2.6,0-.887-.057-1.746-.114-2.6a1.456,1.456,0,0,0-1.6-1.488Zm9.129-3.491h4.378v24.009h-4.378V102.6Zm20.146,5.008V121.6a5.055,5.055,0,0,1-4.836,5.294h-3.062a5.037,5.037,0,0,1-4.836-5.294V107.61a5.051,5.051,0,0,1,5.036-5.294h2.862A5.092,5.092,0,0,1,157.523,107.61Zm-8.413.83c-.029.2-.029.83-.029,1.087v10.731c0,.544.029.944.086,1.631.029,1.173.8,1.459,1.8,1.459,1.116,0,2.032-.029,2.2-1.459.029-.715.057-1.431.057-2.146v-11.3c0-.343-.029-.715-.029-1.059a1.527,1.527,0,0,0-1.374-1.517,3.659,3.659,0,0,0-.6-.029c-2.089,0-2.118.944-2.118,2.6Zm15.338,8.985v9.186h-4.321V102.6h6.839c.372,0,.744,0,1.145.029a5.093,5.093,0,0,1,4.865,5.151v1.2c0,1.173-.029,2.375-.029,3.548a5.273,5.273,0,0,1-2.4,4.378l3.148,9.7h-4.407l-2.89-9.186Zm2.4-11.332h-2.4v8.127h2.69c.859,0,1.23-.687,1.316-1.431.057-.858.114-1.746.114-2.6,0-.887-.057-1.746-.114-2.6A1.456,1.456,0,0,0,166.851,106.093Zm8.757,1.517a5.089,5.089,0,0,1,4.808-5.294h2.547c2.518,0,4.693,2.175,4.693,5.323v3.176h-4.121V108.9c0-1.574-.229-3.033-1.831-3.033-.029,0-.258.029-.286.029a1.712,1.712,0,0,0-1.488,1.889c0,5.723,8.413,6.1,8.413,13.822a5.055,5.055,0,0,1-4.836,5.294h-3.091a5.055,5.055,0,0,1-4.836-5.294V118.4H179.9v1.517c-.029,1.717.258,3.434,2.089,3.434a1.853,1.853,0,0,0,2.032-2.118C184.021,115.651,175.608,115.365,175.608,107.61Z" transform="translate(-7.287 -102.316)"/></g><g transform="translate(217.33 155.296)"><path class="a" d="M10.821,49.752v7.268h-.678V49.752Zm2.864,0,4.425,6.365h.021V49.752h.678v7.268h-.873l-4.425-6.365H13.49v6.365h-.678V49.752h.873Zm11.467,0v.616H21.477v2.587H24.9v.616H21.477v3.449H20.8V49.752Zm2.033,0v7.268h-.678V49.752Zm2.864,0,4.425,6.365h.021V49.752h.678v7.268H34.3l-4.425-6.365h-.021v6.365h-.678V49.752Zm7.792,0v7.268h-.678V49.752Zm6.765,0v.616H42.122v6.652h-.678V50.368H38.96v-.616Zm5.564,0v.616H46.4v2.587h3.531v.616H46.4V56.4h3.932v.616H45.725V49.752H50.17Zm6.56,3.2a1.719,1.719,0,0,0,1.078-.323,1.161,1.161,0,0,0,.431-.96,1.178,1.178,0,0,0-.421-.95,1.681,1.681,0,0,0-1.119-.354h-1.54v2.587H56.73Zm-.175-3.2a2.7,2.7,0,0,1,1.725.493,1.773,1.773,0,0,1,.636,1.427,1.721,1.721,0,0,1-.6,1.381,2.346,2.346,0,0,1-1.55.518H55.159v3.449h-.678V49.752Zm4.024,3.634a3.186,3.186,0,0,0,.852,2.284,3,3,0,0,0,2.228.919,2.893,2.893,0,0,0,2.228-.909,3.282,3.282,0,0,0,.852-2.294,3.2,3.2,0,0,0-.842-2.294,3.017,3.017,0,0,0-2.248-.909,2.889,2.889,0,0,0-2.217.9A3.277,3.277,0,0,0,60.58,53.387Zm3.08-3.819a3.877,3.877,0,0,1,1.961.488,3.358,3.358,0,0,1,1.319,1.365,4.205,4.205,0,0,1,.477,1.966,3.662,3.662,0,0,1-3.757,3.819,3.574,3.574,0,0,1-2.69-1.073A3.9,3.9,0,0,1,59.9,53.387a3.77,3.77,0,0,1,1.047-2.731A3.729,3.729,0,0,1,63.66,49.568Zm7.35,0a2.382,2.382,0,0,1,1.981.914l-.585.421a1.679,1.679,0,0,0-1.417-.719,1.768,1.768,0,0,0-1.165.37,1.3,1.3,0,0,0-.467,1.006,1.225,1.225,0,0,0,.339.9,2.693,2.693,0,0,0,1.181.58,6.062,6.062,0,0,1,1.478.58,1.67,1.67,0,0,1,.559.621,2.01,2.01,0,0,1,.19.924,1.87,1.87,0,0,1-.631,1.453,2.414,2.414,0,0,1-1.627.59,2.72,2.72,0,0,1-2.361-1.1l.647-.431a1.831,1.831,0,0,0,1.663.914,1.7,1.7,0,0,0,1.181-.406,1.314,1.314,0,0,0,.452-1.021,1.207,1.207,0,0,0-.128-.59,1.143,1.143,0,0,0-.39-.4,3.054,3.054,0,0,0-.667-.308l-.95-.323a2.54,2.54,0,0,1-1.217-.749,1.88,1.88,0,0,1-.4-1.232,1.787,1.787,0,0,1,.662-1.437A2.51,2.51,0,0,1,71.01,49.568Zm5.708,0a2.382,2.382,0,0,1,1.981.914l-.585.421a1.679,1.679,0,0,0-1.417-.719,1.768,1.768,0,0,0-1.165.37,1.3,1.3,0,0,0-.467,1.006,1.225,1.225,0,0,0,.339.9,2.693,2.693,0,0,0,1.181.58,6.063,6.063,0,0,1,1.478.58,1.67,1.67,0,0,1,.559.621,2.01,2.01,0,0,1,.19.924,1.87,1.87,0,0,1-.631,1.453,2.414,2.414,0,0,1-1.627.59,2.72,2.72,0,0,1-2.361-1.1l.647-.431a1.831,1.831,0,0,0,1.663.914,1.7,1.7,0,0,0,1.181-.406,1.314,1.314,0,0,0,.452-1.021,1.207,1.207,0,0,0-.128-.59,1.143,1.143,0,0,0-.39-.4,3.053,3.053,0,0,0-.667-.308L76,53.541a2.54,2.54,0,0,1-1.216-.749,1.88,1.88,0,0,1-.4-1.232,1.787,1.787,0,0,1,.662-1.437A2.51,2.51,0,0,1,76.718,49.568Zm4.312.185v7.268h-.678V49.752ZM85.3,56.4a2.074,2.074,0,0,0,1.335-.375,1.245,1.245,0,0,0,.462-1.021,1.357,1.357,0,0,0-.477-1.1,1.876,1.876,0,0,0-1.247-.4H83.7V56.4Zm-.154-3.511a2,2,0,0,0,1.186-.318,1.044,1.044,0,0,0,.447-.9q0-1.273-1.54-1.3H83.7v2.525Zm.021-3.141a2.674,2.674,0,0,1,1.709.462,1.793,1.793,0,0,1,.58,1.458,1.479,1.479,0,0,1-.339.98,1.614,1.614,0,0,1-.965.529V53.2a1.639,1.639,0,0,1,1.16.534,2,2,0,0,1-.18,2.746,2.747,2.747,0,0,1-1.771.539H83.021V49.752h2.146Zm5,0v7.268h-.678V49.752Zm2.669,0V56.4h3.388v.616H92.158V49.752h.678Zm5.133,0v7.268h-.678V49.752Zm6.765,0v.616h-2.484v6.652h-.678V50.368H99.087v-.616Zm1.8,0v7.268h-.678V49.752Zm6.437,0v.616H109.2v2.587h3.531v.616H109.2V56.4h3.932v.616h-4.609V49.752Zm3.716-.185a2.382,2.382,0,0,1,1.981.914l-.585.421a1.679,1.679,0,0,0-1.417-.719,1.768,1.768,0,0,0-1.165.37,1.3,1.3,0,0,0-.467,1.006,1.225,1.225,0,0,0,.339.9,2.693,2.693,0,0,0,1.181.58,6.062,6.062,0,0,1,1.478.58,1.67,1.67,0,0,1,.559.621,2.01,2.01,0,0,1,.19.924,1.87,1.87,0,0,1-.631,1.453,2.414,2.414,0,0,1-1.627.59,2.72,2.72,0,0,1-2.361-1.1l.647-.431a1.831,1.831,0,0,0,1.663.914,1.7,1.7,0,0,0,1.181-.406,1.314,1.314,0,0,0,.452-1.021,1.206,1.206,0,0,0-.128-.59,1.143,1.143,0,0,0-.39-.4,3.053,3.053,0,0,0-.667-.308l-.95-.323a2.54,2.54,0,0,1-1.217-.749,1.88,1.88,0,0,1-.4-1.232,1.787,1.787,0,0,1,.662-1.437A2.51,2.51,0,0,1,116.683,49.568Z" transform="translate(-10.144 -49.568)"/></g></g></svg>