<svg xmlns="http://www.w3.org/2000/svg" width="90.036" height="79.344" viewBox="0 0 90.036 79.344"><defs><style>.a{fill:#fff;}.b{fill:#59c1d2;}</style></defs><g transform="translate(-262.383 -119.696)"><path class="a" d="M296.637,179.561l-.174-.752,14.093-3.3q.163-2.18.166-4.416V141.849l-13.636-2.81.206-.788a25.4,25.4,0,0,1,4.015-8.744,22.335,22.335,0,0,1,6.378-5.874,26.263,26.263,0,0,1,3.038-1.573V119.7H293.7v49.54q0,2.184-.163,4.747a17.742,17.742,0,0,1-.928,4.747,8.687,8.687,0,0,1-2.4,3.655,6.609,6.609,0,0,1-4.583,1.472,7.472,7.472,0,0,1-5.074-1.964,7.322,7.322,0,0,1-2.564-4.8l-15.6,3.818q1.854,9.276,8.184,13.64t15.495,4.365q7.856,0,12.712-2.346a20.078,20.078,0,0,0,5.259-3.592c-3.6-3.241-6.081-7.738-7.4-13.417"/><path class="a" d="M410.65,152.129h5.292a29.786,29.786,0,0,0,4.428-.324,12.612,12.612,0,0,0,3.944-1.243,7.341,7.341,0,0,0,2.862-2.591,7.961,7.961,0,0,0,1.079-4.376,7.109,7.109,0,0,0-2.753-5.725,10.276,10.276,0,0,0-6.751-2.268,9.523,9.523,0,0,0-6.266,2.051,9.409,9.409,0,0,0-3.24,5.077l-17.824-3.673a24.532,24.532,0,0,1,3.889-8.48,21.459,21.459,0,0,1,6.157-5.672,27.241,27.241,0,0,1,7.94-3.185,40.319,40.319,0,0,1,9.235-1.027,38.085,38.085,0,0,1,9.776,1.243,23.954,23.954,0,0,1,8.263,3.889,19.461,19.461,0,0,1,5.672,6.642,20.127,20.127,0,0,1,2.106,9.507,17.875,17.875,0,0,1-3.348,10.909,15.343,15.343,0,0,1-9.722,5.834v.323a15.182,15.182,0,0,1,6.1,2.054,16.55,16.55,0,0,1,4.482,4,17.507,17.507,0,0,1,2.808,5.4,20.688,20.688,0,0,1,.974,6.373,21.743,21.743,0,0,1-2.215,10.046A21,21,0,0,1,437.6,194.1a25.434,25.434,0,0,1-8.75,4.267,39.448,39.448,0,0,1-10.641,1.4,31.954,31.954,0,0,1-17.66-4.752q-7.4-4.752-9.777-15.015l17.068-4a11.624,11.624,0,0,0,3.511,6.483q2.645,2.376,7.833,2.377,5.29,0,7.83-2.755a10.034,10.034,0,0,0,2.539-7.075,7.385,7.385,0,0,0-4.863-7.671,15.56,15.56,0,0,0-4.86-1.025q-2.7-.163-5.4-.163h-3.78Z" transform="translate(-93.337 -0.726)"/><path class="b" d="M420.753,351.821v-3.674h-3.674v-2.185h3.674v-3.674h2.186v3.674h3.673v2.185h-3.673v3.674Z" transform="translate(-112.462 -161.822)"/><path class="b" d="M0,0H7.912V2.1H0Z" transform="translate(305.411 132.986)"/></g></svg>